solid
facet normal 0.0 0.0 -1.0
outer loop
vertex 0.0037384977086384816 0.0 -0.3
vertex 0.0 0.0 -0.3
vertex 0.0037311206373890535 0.00023474221338455788 -0.3
endloop
endfacet
facet normal 0.9995065603657315 0.03141075907812757 0.0
outer loop
vertex 0.0037384977086384816 0.0 -0.3
vertex 0.0037311206373890535 0.00023474221338455788 -0.3
vertex 0.0037384977086384816 0.0 0.3
endloop
endfacet
facet normal 0.9995065603657315 0.03141075907812757 -0.0
outer loop
vertex 0.0037384977086384816 0.0 0.3
vertex 0.0037311206373890535 0.00023474221338455788 -0.3
vertex 0.0037311206373890535 0.00023474221338455788 0.3
endloop
endfacet
facet normal 0.0 0.0 1.0
outer loop
vertex 0.0037384977086384816 0.0 0.3
vertex 0.0037311206373890535 0.00023474221338455788 0.3
vertex 0.0 0.0 0.3
endloop
endfacet
facet normal -0.0 0.0 -0.9999999999999999
outer loop
vertex 0.0037311206373890535 0.00023474221338455788 -0.3
vertex 0.0 0.0 -0.3
vertex 0.003709018537570727 0.0004685580064964031 -0.3
endloop
endfacet
facet normal 0.9955619646030801 0.0941083133185138 0.0
outer loop
vertex 0.0037311206373890535 0.00023474221338455788 -0.3
vertex 0.003709018537570727 0.0004685580064964031 -0.3
vertex 0.0037311206373890535 0.00023474221338455788 0.3
endloop
endfacet
facet normal 0.9955619646030801 0.0941083133185138 -0.0
outer loop
vertex 0.0037311206373890535 0.00023474221338455788 0.3
vertex 0.003709018537570727 0.0004685580064964031 -0.3
vertex 0.003709018537570727 0.0004685580064964031 0.3
endloop
endfacet
facet normal 0.0 0.0 1.0
outer loop
vertex 0.0037311206373890535 0.00023474221338455788 0.3
vertex 0.003709018537570727 0.0004685580064964031 0.3
vertex 0.0 0.0 0.3
endloop
endfacet
facet normal -0.0 0.0 -0.9999999999999999
outer loop
vertex 0.003709018537570727 0.0004685580064964031 -0.3
vertex 0.0 0.0 -0.3
vertex 0.0036722786360739966 0.000700524615220398 -0.3
endloop
endfacet
facet normal 0.9876883405951378 0.15643446504023079 0.0
outer loop
vertex 0.003709018537570727 0.0004685580064964031 -0.3
vertex 0.0036722786360739966 0.000700524615220398 -0.3
vertex 0.003709018537570727 0.0004685580064964031 0.3
endloop
endfacet
facet normal 0.9876883405951378 0.15643446504023079 -0.0
outer loop
vertex 0.003709018537570727 0.0004685580064964031 0.3
vertex 0.0036722786360739966 0.000700524615220398 -0.3
vertex 0.0036722786360739966 0.000700524615220398 0.3
endloop
endfacet
facet normal 0.0 0.0 1.0
outer loop
vertex 0.003709018537570727 0.0004685580064964031 0.3
vertex 0.0036722786360739966 0.000700524615220398 0.3
vertex 0.0 0.0 0.3
endloop
endfacet
facet normal -0.0 0.0 -0.9999999999999999
outer loop
vertex 0.0036722786360739966 0.000700524615220398 -0.3
vertex 0.0 0.0 -0.3
vertex 0.0036210459285052044 0.0009297265733273722 -0.3
endloop
endfacet
facet normal 0.9759167619387469 0.21814324139654473 0.0
outer loop
vertex 0.0036722786360739966 0.000700524615220398 -0.3
vertex 0.0036210459285052044 0.0009297265733273722 -0.3
vertex 0.0036722786360739966 0.000700524615220398 0.3
endloop
endfacet
facet normal 0.9759167619387469 0.21814324139654473 -0.0
outer loop
vertex 0.0036722786360739966 0.000700524615220398 0.3
vertex 0.0036210459285052044 0.0009297265733273722 -0.3
vertex 0.0036210459285052044 0.0009297265733273722 0.3
endloop
endfacet
facet normal 0.0 0.0 1.0
outer loop
vertex 0.0036722786360739966 0.000700524615220398 0.3
vertex 0.0036210459285052044 0.0009297265733273722 0.3
vertex 0.0 0.0 0.3
endloop
endfacet
facet normal -0.0 0.0 -1.0
outer loop
vertex 0.0036210459285052044 0.0009297265733273722 -0.3
vertex 0.0 0.0 -0.3
vertex 0.0035555226069551283 0.0011552593254010913 -0.3
endloop
endfacet
facet normal 0.9602936856769432 0.2789911060392288 0.0
outer loop
vertex 0.0036210459285052044 0.0009297265733273722 -0.3
vertex 0.0035555226069551283 0.0011552593254010913 -0.3
vertex 0.0036210459285052044 0.0009297265733273722 0.3
endloop
endfacet
facet normal 0.9602936856769432 0.2789911060392288 -0.0
outer loop
vertex 0.0036210459285052044 0.0009297265733273722 0.3
vertex 0.0035555226069551283 0.0011552593254010913 -0.3
vertex 0.0035555226069551283 0.0011552593254010913 0.3
endloop
endfacet
facet normal 0.0 0.0 1.0
outer loop
vertex 0.0036210459285052044 0.0009297265733273722 0.3
vertex 0.0035555226069551283 0.0011552593254010913 0.3
vertex 0.0 0.0 0.3
endloop
endfacet
facet normal -0.0 0.0 -1.0
outer loop
vertex 0.0035555226069551283 0.0011552593254010913 -0.3
vertex 0.0 0.0 -0.3
vertex 0.0034759672620391672 0.0013762327967052346 -0.3
endloop
endfacet
facet normal 0.9408807689542256 0.3387379202452915 0.0
outer loop
vertex 0.0035555226069551283 0.0011552593254010913 -0.3
vertex 0.0034759672620391672 0.0013762327967052346 -0.3
vertex 0.0035555226069551283 0.0011552593254010913 0.3
endloop
endfacet
facet normal 0.9408807689542256 0.3387379202452915 -0.0
outer loop
vertex 0.0035555226069551283 0.0011552593254010913 0.3
vertex 0.0034759672620391672 0.0013762327967052346 -0.3
vertex 0.0034759672620391672 0.0013762327967052346 0.3
endloop
endfacet
facet normal 0.0 0.0 0.9999999999999999
outer loop
vertex 0.0035555226069551283 0.0011552593254010913 0.3
vertex 0.0034759672620391672 0.0013762327967052346 0.3
vertex 0.0 0.0 0.3
endloop
endfacet
facet normal -0.0 0.0 -1.0
outer loop
vertex 0.0034759672620391672 0.0013762327967052346 -0.3
vertex 0.0 0.0 -0.3
vertex 0.003382693862358325 0.0015917749059017404 -0.3
endloop
endfacet
facet normal 0.9177546256839811 0.3971478906347805 0.0
outer loop
vertex 0.0034759672620391672 0.0013762327967052346 -0.3
vertex 0.003382693862358325 0.0015917749059017404 -0.3
vertex 0.0034759672620391672 0.0013762327967052346 0.3
endloop
endfacet
facet normal 0.9177546256839811 0.3971478906347805 -0.0
outer loop
vertex 0.0034759672620391672 0.0013762327967052346 0.3
vertex 0.003382693862358325 0.0015917749059017404 -0.3
vertex 0.003382693862358325 0.0015917749059017404 0.3
endloop
endfacet
facet normal 0.0 0.0 1.0
outer loop
vertex 0.0034759672620391672 0.0013762327967052346 0.3
vertex 0.003382693862358325 0.0015917749059017404 0.3
vertex 0.0 0.0 0.3
endloop
endfacet
facet normal -0.0 0.0 -1.0
outer loop
vertex 0.003382693862358325 0.0015917749059017404 -0.3
vertex 0.0 0.0 -0.3
vertex 0.003276070515408579 0.0018010350067574326 -0.3
endloop
endfacet
facet normal 0.891006524188368 0.4539904997395463 0.0
outer loop
vertex 0.003382693862358325 0.0015917749059017404 -0.3
vertex 0.003276070515408579 0.0018010350067574326 -0.3
vertex 0.003382693862358325 0.0015917749059017404 0.3
endloop
endfacet
facet normal 0.891006524188368 0.4539904997395463 -0.0
outer loop
vertex 0.003382693862358325 0.0015917749059017404 0.3
vertex 0.003276070515408579 0.0018010350067574326 -0.3
vertex 0.003276070515408579 0.0018010350067574326 0.3
endloop
endfacet
facet normal 0.0 0.0 1.0
outer loop
vertex 0.003382693862358325 0.0015917749059017404 0.3
vertex 0.003276070515408579 0.0018010350067574326 0.3
vertex 0.0 0.0 0.3
endloop
endfacet
facet normal -0.0 0.0 -1.0
outer loop
vertex 0.003276070515408579 0.0018010350067574326 -0.3
vertex 0.0 0.0 -0.3
vertex 0.003156518014828766 0.0020031872452560807 -0.3
endloop
endfacet
facet normal 0.8607420270039438 0.5090414157503709 0.0
outer loop
vertex 0.003276070515408579 0.0018010350067574326 -0.3
vertex 0.003156518014828766 0.0020031872452560807 -0.3
vertex 0.003276070515408579 0.0018010350067574326 0.3
endloop
endfacet
facet normal 0.8607420270039438 0.5090414157503709 -0.0
outer loop
vertex 0.003276070515408579 0.0018010350067574326 0.3
vertex 0.003156518014828766 0.0020031872452560807 -0.3
vertex 0.003156518014828766 0.0020031872452560807 0.3
endloop
endfacet
facet normal 0.0 0.0 1.0
outer loop
vertex 0.003276070515408579 0.0018010350067574326 0.3
vertex 0.003156518014828766 0.0020031872452560807 0.3
vertex 0.0 0.0 0.3
endloop
endfacet
facet normal -0.0 0.0 -1.0
outer loop
vertex 0.003156518014828766 0.0020031872452560807 -0.3
vertex 0.0 0.0 -0.3
vertex 0.0030245081797203323 0.0021974338188669026 -0.3
endloop
endfacet
facet normal 0.8270805742745615 0.562083377852131 0.0
outer loop
vertex 0.003156518014828766 0.0020031872452560807 -0.3
vertex 0.0030245081797203323 0.0021974338188669026 -0.3
vertex 0.003156518014828766 0.0020031872452560807 0.3
endloop
endfacet
facet normal 0.8270805742745615 0.562083377852131 -0.0
outer loop
vertex 0.003156518014828766 0.0020031872452560807 0.3
vertex 0.0030245081797203323 0.0021974338188669026 -0.3
vertex 0.0030245081797203323 0.0021974338188669026 0.3
endloop
endfacet
facet normal 0.0 0.0 1.0
outer loop
vertex 0.003156518014828766 0.0020031872452560807 0.3
vertex 0.0030245081797203323 0.0021974338188669026 0.3
vertex 0.0 0.0 0.3
endloop
endfacet
facet normal -0.0 0.0 -1.0
outer loop
vertex 0.0030245081797203323 0.0021974338188669026 -0.3
vertex 0.0 0.0 -0.3
vertex 0.002880561992592894 0.0023830081251066757 -0.3
endloop
endfacet
facet normal 0.7901550123756904 0.6129070536529766 0.0
outer loop
vertex 0.0030245081797203323 0.0021974338188669026 -0.3
vertex 0.002880561992592894 0.0023830081251066757 -0.3
vertex 0.0030245081797203323 0.0021974338188669026 0.3
endloop
endfacet
facet normal 0.7901550123756904 0.6129070536529766 -0.0
outer loop
vertex 0.0030245081797203323 0.0021974338188669026 0.3
vertex 0.002880561992592894 0.0023830081251066757 -0.3
vertex 0.002880561992592894 0.0023830081251066757 0.3
endloop
endfacet
facet normal 0.0 0.0 0.9999999999999999
outer loop
vertex 0.0030245081797203323 0.0021974338188669026 0.3
vertex 0.002880561992592894 0.0023830081251066757 0.3
vertex 0.0 0.0 0.3
endloop
endfacet
facet normal -0.0 0.0 -1.0
outer loop
vertex 0.002880561992592894 0.0023830081251066757 -0.3
vertex 0.0 0.0 -0.3
vertex 0.002725247543284286 0.0025591777869695066 -0.3
endloop
endfacet
facet normal 0.7501110696304599 0.6613118653236514 0.0
outer loop
vertex 0.002880561992592894 0.0023830081251066757 -0.3
vertex 0.002725247543284286 0.0025591777869695066 -0.3
vertex 0.002880561992592894 0.0023830081251066757 0.3
endloop
endfacet
facet normal 0.7501110696304599 0.6613118653236514 -0.0
outer loop
vertex 0.002880561992592894 0.0023830081251066757 0.3
vertex 0.002725247543284286 0.0025591777869695066 -0.3
vertex 0.002725247543284286 0.0025591777869695066 0.3
endloop
endfacet
facet normal 0.0 0.0 1.0
outer loop
vertex 0.002880561992592894 0.0023830081251066757 0.3
vertex 0.002725247543284286 0.0025591777869695066 0.3
vertex 0.0 0.0 0.3
endloop
endfacet
facet normal -0.0 0.0 -1.0
outer loop
vertex 0.002725247543284286 0.0025591777869695066 -0.3
vertex 0.0 0.0 -0.3
vertex 0.002559177786969506 0.002725247543284286 -0.3
endloop
endfacet
facet normal 0.7071067811865466 0.7071067811865485 0.0
outer loop
vertex 0.002725247543284286 0.0025591777869695066 -0.3
vertex 0.002559177786969506 0.002725247543284286 -0.3
vertex 0.002725247543284286 0.0025591777869695066 0.3
endloop
endfacet
facet normal 0.7071067811865466 0.7071067811865485 -0.0
outer loop
vertex 0.002725247543284286 0.0025591777869695066 0.3
vertex 0.002559177786969506 0.002725247543284286 -0.3
vertex 0.002559177786969506 0.002725247543284286 0.3
endloop
endfacet
facet normal 0.0 0.0 1.0
outer loop
vertex 0.002725247543284286 0.0025591777869695066 0.3
vertex 0.002559177786969506 0.002725247543284286 0.3
vertex 0.0 0.0 0.3
endloop
endfacet
facet normal -0.0 0.0 -1.0
outer loop
vertex 0.002559177786969506 0.002725247543284286 -0.3
vertex 0.0 0.0 -0.3
vertex 0.0023830081251066753 0.0028805619925928944 -0.3
endloop
endfacet
facet normal 0.6613118653236524 0.7501110696304589 0.0
outer loop
vertex 0.002559177786969506 0.002725247543284286 -0.3
vertex 0.0023830081251066753 0.0028805619925928944 -0.3
vertex 0.002559177786969506 0.002725247543284286 0.3
endloop
endfacet
facet normal 0.6613118653236524 0.7501110696304589 -0.0
outer loop
vertex 0.002559177786969506 0.002725247543284286 0.3
vertex 0.0023830081251066753 0.0028805619925928944 -0.3
vertex 0.0023830081251066753 0.0028805619925928944 0.3
endloop
endfacet
facet normal 0.0 0.0 1.0
outer loop
vertex 0.002559177786969506 0.002725247543284286 0.3
vertex 0.0023830081251066753 0.0028805619925928944 0.3
vertex 0.0 0.0 0.3
endloop
endfacet
facet normal -0.0 0.0 -1.0
outer loop
vertex 0.0023830081251066753 0.0028805619925928944 -0.3
vertex 0.0 0.0 -0.3
vertex 0.002197433818866902 0.0030245081797203323 -0.3
endloop
endfacet
facet normal 0.6129070536529755 0.7901550123756913 0.0
outer loop
vertex 0.0023830081251066753 0.0028805619925928944 -0.3
vertex 0.002197433818866902 0.0030245081797203323 -0.3
vertex 0.0023830081251066753 0.0028805619925928944 0.3
endloop
endfacet
facet normal 0.6129070536529755 0.7901550123756913 -0.0
outer loop
vertex 0.0023830081251066753 0.0028805619925928944 0.3
vertex 0.002197433818866902 0.0030245081797203323 -0.3
vertex 0.002197433818866902 0.0030245081797203323 0.3
endloop
endfacet
facet normal 0.0 0.0 1.0
outer loop
vertex 0.0023830081251066753 0.0028805619925928944 0.3
vertex 0.002197433818866902 0.0030245081797203323 0.3
vertex 0.0 0.0 0.3
endloop
endfacet
facet normal -0.0 0.0 -1.0
outer loop
vertex 0.002197433818866902 0.0030245081797203323 -0.3
vertex 0.0 0.0 -0.3
vertex 0.0020031872452560802 0.003156518014828766 -0.3
endloop
endfacet
facet normal 0.562083377852131 0.8270805742745615 0.0
outer loop
vertex 0.002197433818866902 0.0030245081797203323 -0.3
vertex 0.0020031872452560802 0.003156518014828766 -0.3
vertex 0.002197433818866902 0.0030245081797203323 0.3
endloop
endfacet
facet normal 0.562083377852131 0.8270805742745615 -0.0
outer loop
vertex 0.002197433818866902 0.0030245081797203323 0.3
vertex 0.0020031872452560802 0.003156518014828766 -0.3
vertex 0.0020031872452560802 0.003156518014828766 0.3
endloop
endfacet
facet normal 0.0 0.0 1.0
outer loop
vertex 0.002197433818866902 0.0030245081797203323 0.3
vertex 0.0020031872452560802 0.003156518014828766 0.3
vertex 0.0 0.0 0.3
endloop
endfacet
facet normal -0.0 0.0 -0.9999999999999999
outer loop
vertex 0.0020031872452560802 0.003156518014828766 -0.3
vertex 0.0 0.0 -0.3
vertex 0.001801035006757432 0.0032760705154085794 -0.3
endloop
endfacet
facet normal 0.509041415750372 0.8607420270039433 0.0
outer loop
vertex 0.0020031872452560802 0.003156518014828766 -0.3
vertex 0.001801035006757432 0.0032760705154085794 -0.3
vertex 0.0020031872452560802 0.003156518014828766 0.3
endloop
endfacet
facet normal 0.509041415750372 0.8607420270039433 -0.0
outer loop
vertex 0.0020031872452560802 0.003156518014828766 0.3
vertex 0.001801035006757432 0.0032760705154085794 -0.3
vertex 0.001801035006757432 0.0032760705154085794 0.3
endloop
endfacet
facet normal 0.0 0.0 1.0
outer loop
vertex 0.0020031872452560802 0.003156518014828766 0.3
vertex 0.001801035006757432 0.0032760705154085794 0.3
vertex 0.0 0.0 0.3
endloop
endfacet
facet normal -0.0 0.0 -1.0
outer loop
vertex 0.001801035006757432 0.0032760705154085794 -0.3
vertex 0.0 0.0 -0.3
vertex 0.0015917749059017401 0.0033826938623583254 -0.3
endloop
endfacet
facet normal 0.4539904997395471 0.8910065241883677 0.0
outer loop
vertex 0.001801035006757432 0.0032760705154085794 -0.3
vertex 0.0015917749059017401 0.0033826938623583254 -0.3
vertex 0.001801035006757432 0.0032760705154085794 0.3
endloop
endfacet
facet normal 0.4539904997395471 0.8910065241883677 -0.0
outer loop
vertex 0.001801035006757432 0.0032760705154085794 0.3
vertex 0.0015917749059017401 0.0033826938623583254 -0.3
vertex 0.0015917749059017401 0.0033826938623583254 0.3
endloop
endfacet
facet normal 0.0 0.0 1.0
outer loop
vertex 0.001801035006757432 0.0032760705154085794 0.3
vertex 0.0015917749059017401 0.0033826938623583254 0.3
vertex 0.0 0.0 0.3
endloop
endfacet
facet normal -0.0 0.0 -0.9999999999999999
outer loop
vertex 0.0015917749059017401 0.0033826938623583254 -0.3
vertex 0.0 0.0 -0.3
vertex 0.0013762327967052341 0.0034759672620391677 -0.3
endloop
endfacet
facet normal 0.3971478906347802 0.9177546256839815 0.0
outer loop
vertex 0.0015917749059017401 0.0033826938623583254 -0.3
vertex 0.0013762327967052341 0.0034759672620391677 -0.3
vertex 0.0015917749059017401 0.0033826938623583254 0.3
endloop
endfacet
facet normal 0.3971478906347802 0.9177546256839815 -0.0
outer loop
vertex 0.0015917749059017401 0.0033826938623583254 0.3
vertex 0.0013762327967052341 0.0034759672620391677 -0.3
vertex 0.0013762327967052341 0.0034759672620391677 0.3
endloop
endfacet
facet normal 0.0 0.0 1.0
outer loop
vertex 0.0015917749059017401 0.0033826938623583254 0.3
vertex 0.0013762327967052341 0.0034759672620391677 0.3
vertex 0.0 0.0 0.3
endloop
endfacet
facet normal -0.0 0.0 -1.0
outer loop
vertex 0.0013762327967052341 0.0034759672620391677 -0.3
vertex 0.0 0.0 -0.3
vertex 0.0011552593254010915 0.0035555226069551283 -0.3
endloop
endfacet
facet normal 0.3387379202452907 0.9408807689542257 0.0
outer loop
vertex 0.0013762327967052341 0.0034759672620391677 -0.3
vertex 0.0011552593254010915 0.0035555226069551283 -0.3
vertex 0.0013762327967052341 0.0034759672620391677 0.3
endloop
endfacet
facet normal 0.3387379202452907 0.9408807689542257 -0.0
outer loop
vertex 0.0013762327967052341 0.0034759672620391677 0.3
vertex 0.0011552593254010915 0.0035555226069551283 -0.3
vertex 0.0011552593254010915 0.0035555226069551283 0.3
endloop
endfacet
facet normal 0.0 0.0 1.0
outer loop
vertex 0.0013762327967052341 0.0034759672620391677 0.3
vertex 0.0011552593254010915 0.0035555226069551283 0.3
vertex 0.0 0.0 0.3
endloop
endfacet
facet normal -0.0 0.0 -1.0
outer loop
vertex 0.0011552593254010915 0.0035555226069551283 -0.3
vertex 0.0 0.0 -0.3
vertex 0.000929726573327372 0.0036210459285052044 -0.3
endloop
endfacet
facet normal 0.27899110603922833 0.9602936856769435 0.0
outer loop
vertex 0.0011552593254010915 0.0035555226069551283 -0.3
vertex 0.000929726573327372 0.0036210459285052044 -0.3
vertex 0.0011552593254010915 0.0035555226069551283 0.3
endloop
endfacet
facet normal 0.27899110603922833 0.9602936856769435 -0.0
outer loop
vertex 0.0011552593254010915 0.0035555226069551283 0.3
vertex 0.000929726573327372 0.0036210459285052044 -0.3
vertex 0.000929726573327372 0.0036210459285052044 0.3
endloop
endfacet
facet normal 0.0 0.0 1.0
outer loop
vertex 0.0011552593254010915 0.0035555226069551283 0.3
vertex 0.000929726573327372 0.0036210459285052044 0.3
vertex 0.0 0.0 0.3
endloop
endfacet
facet normal -0.0 0.0 -1.0
outer loop
vertex 0.000929726573327372 0.0036210459285052044 -0.3
vertex 0.0 0.0 -0.3
vertex 0.0007005246152203976 0.0036722786360739966 -0.3
endloop
endfacet
facet normal 0.21814324139654462 0.9759167619387471 0.0
outer loop
vertex 0.000929726573327372 0.0036210459285052044 -0.3
vertex 0.0007005246152203976 0.0036722786360739966 -0.3
vertex 0.000929726573327372 0.0036210459285052044 0.3
endloop
endfacet
facet normal 0.21814324139654462 0.9759167619387471 -0.0
outer loop
vertex 0.000929726573327372 0.0036210459285052044 0.3
vertex 0.0007005246152203976 0.0036722786360739966 -0.3
vertex 0.0007005246152203976 0.0036722786360739966 0.3
endloop
endfacet
facet normal 0.0 0.0 0.9999999999999999
outer loop
vertex 0.000929726573327372 0.0036210459285052044 0.3
vertex 0.0007005246152203976 0.0036722786360739966 0.3
vertex 0.0 0.0 0.3
endloop
endfacet
facet normal -0.0 0.0 -0.9999999999999999
outer loop
vertex 0.0007005246152203976 0.0036722786360739966 -0.3
vertex 0.0 0.0 -0.3
vertex 0.0004685580064964031 0.003709018537570727 -0.3
endloop
endfacet
facet normal 0.156434465040231 0.9876883405951378 0.0
outer loop
vertex 0.0007005246152203976 0.0036722786360739966 -0.3
vertex 0.0004685580064964031 0.003709018537570727 -0.3
vertex 0.0007005246152203976 0.0036722786360739966 0.3
endloop
endfacet
facet normal 0.156434465040231 0.9876883405951378 -0.0
outer loop
vertex 0.0007005246152203976 0.0036722786360739966 0.3
vertex 0.0004685580064964031 0.003709018537570727 -0.3
vertex 0.0004685580064964031 0.003709018537570727 0.3
endloop
endfacet
facet normal 0.0 0.0 1.0
outer loop
vertex 0.0007005246152203976 0.0036722786360739966 0.3
vertex 0.0004685580064964031 0.003709018537570727 0.3
vertex 0.0 0.0 0.3
endloop
endfacet
facet normal -0.0 0.0 -1.0
outer loop
vertex 0.0004685580064964031 0.003709018537570727 -0.3
vertex 0.0 0.0 -0.3
vertex 0.0002347422133845576 0.0037311206373890535 -0.3
endloop
endfacet
facet normal 0.09410831331851369 0.9955619646030801 0.0
outer loop
vertex 0.0004685580064964031 0.003709018537570727 -0.3
vertex 0.0002347422133845576 0.0037311206373890535 -0.3
vertex 0.0004685580064964031 0.003709018537570727 0.3
endloop
endfacet
facet normal 0.09410831331851369 0.9955619646030801 -0.0
outer loop
vertex 0.0004685580064964031 0.003709018537570727 0.3
vertex 0.0002347422133845576 0.0037311206373890535 -0.3
vertex 0.0002347422133845576 0.0037311206373890535 0.3
endloop
endfacet
facet normal 0.0 0.0 0.9999999999999999
outer loop
vertex 0.0004685580064964031 0.003709018537570727 0.3
vertex 0.0002347422133845576 0.0037311206373890535 0.3
vertex 0.0 0.0 0.3
endloop
endfacet
facet normal -0.0 0.0 -1.0
outer loop
vertex 0.0002347422133845576 0.0037311206373890535 -0.3
vertex 0.0 0.0 -0.3
vertex -6.011962841025748e-19 0.0037384977086384816 -0.3
endloop
endfacet
facet normal 0.03141075907812753 0.9995065603657316 0.0
outer loop
vertex 0.0002347422133845576 0.0037311206373890535 -0.3
vertex -6.011962841025748e-19 0.0037384977086384816 -0.3
vertex 0.0002347422133845576 0.0037311206373890535 0.3
endloop
endfacet
facet normal 0.03141075907812753 0.9995065603657316 -0.0
outer loop
vertex 0.0002347422133845576 0.0037311206373890535 0.3
vertex -6.011962841025748e-19 0.0037384977086384816 -0.3
vertex -6.011962841025748e-19 0.0037384977086384816 0.3
endloop
endfacet
facet normal 0.0 0.0 0.9999999999999999
outer loop
vertex 0.0002347422133845576 0.0037311206373890535 0.3
vertex -6.011962841025748e-19 0.0037384977086384816 0.3
vertex 0.0 0.0 0.3
endloop
endfacet
facet normal -0.0 -0.0 -1.0
outer loop
vertex -6.011962841025748e-19 0.0037384977086384816 -0.3
vertex 0.0 0.0 -0.3
vertex -0.00023474221338455799 0.0037311206373890535 -0.3
endloop
endfacet
facet normal -0.03141075907812763 0.9995065603657316 0.0
outer loop
vertex -6.011962841025748e-19 0.0037384977086384816 -0.3
vertex -0.00023474221338455799 0.0037311206373890535 -0.3
vertex -6.011962841025748e-19 0.0037384977086384816 0.3
endloop
endfacet
facet normal -0.03141075907812763 0.9995065603657316 0.0
outer loop
vertex -6.011962841025748e-19 0.0037384977086384816 0.3
vertex -0.00023474221338455799 0.0037311206373890535 -0.3
vertex -0.00023474221338455799 0.0037311206373890535 0.3
endloop
endfacet
facet normal 0.0 0.0 1.0
outer loop
vertex -6.011962841025748e-19 0.0037384977086384816 0.3
vertex -0.00023474221338455799 0.0037311206373890535 0.3
vertex 0.0 0.0 0.3
endloop
endfacet
facet normal -0.0 -0.0 -1.0
outer loop
vertex -0.00023474221338455799 0.0037311206373890535 -0.3
vertex 0.0 0.0 -0.3
vertex -0.0004685580064964035 0.0037090185375707268 -0.3
endloop
endfacet
facet normal -0.0941083133185155 0.9955619646030799 0.0
outer loop
vertex -0.00023474221338455799 0.0037311206373890535 -0.3
vertex -0.0004685580064964035 0.0037090185375707268 -0.3
vertex -0.00023474221338455799 0.0037311206373890535 0.3
endloop
endfacet
facet normal -0.0941083133185155 0.9955619646030799 0.0
outer loop
vertex -0.00023474221338455799 0.0037311206373890535 0.3
vertex -0.0004685580064964035 0.0037090185375707268 -0.3
vertex -0.0004685580064964035 0.0037090185375707268 0.3
endloop
endfacet
facet normal 0.0 0.0 0.9999999999999999
outer loop
vertex -0.00023474221338455799 0.0037311206373890535 0.3
vertex -0.0004685580064964035 0.0037090185375707268 0.3
vertex 0.0 0.0 0.3
endloop
endfacet
facet normal -0.0 -0.0 -0.9999999999999999
outer loop
vertex -0.0004685580064964035 0.0037090185375707268 -0.3
vertex 0.0 0.0 -0.3
vertex -0.0007005246152203987 0.003672278636073996 -0.3
endloop
endfacet
facet normal -0.1564344650402306 0.9876883405951379 0.0
outer loop
vertex -0.0004685580064964035 0.0037090185375707268 -0.3
vertex -0.0007005246152203987 0.003672278636073996 -0.3
vertex -0.0004685580064964035 0.0037090185375707268 0.3
endloop
endfacet
facet normal -0.1564344650402306 0.9876883405951379 0.0
outer loop
vertex -0.0004685580064964035 0.0037090185375707268 0.3
vertex -0.0007005246152203987 0.003672278636073996 -0.3
vertex -0.0007005246152203987 0.003672278636073996 0.3
endloop
endfacet
facet normal 0.0 0.0 1.0
outer loop
vertex -0.0004685580064964035 0.0037090185375707268 0.3
vertex -0.0007005246152203987 0.003672278636073996 0.3
vertex 0.0 0.0 0.3
endloop
endfacet
facet normal -0.0 -0.0 -1.0
outer loop
vertex -0.0007005246152203987 0.003672278636073996 -0.3
vertex 0.0 0.0 -0.3
vertex -0.0009297265733273724 0.0036210459285052044 -0.3
endloop
endfacet
facet normal -0.21814324139654348 0.9759167619387472 0.0
outer loop
vertex -0.0007005246152203987 0.003672278636073996 -0.3
vertex -0.0009297265733273724 0.0036210459285052044 -0.3
vertex -0.0007005246152203987 0.003672278636073996 0.3
endloop
endfacet
facet normal -0.21814324139654348 0.9759167619387472 0.0
outer loop
vertex -0.0007005246152203987 0.003672278636073996 0.3
vertex -0.0009297265733273724 0.0036210459285052044 -0.3
vertex -0.0009297265733273724 0.0036210459285052044 0.3
endloop
endfacet
facet normal 0.0 0.0 1.0
outer loop
vertex -0.0007005246152203987 0.003672278636073996 0.3
vertex -0.0009297265733273724 0.0036210459285052044 0.3
vertex 0.0 0.0 0.3
endloop
endfacet
facet normal -0.0 -0.0 -1.0
outer loop
vertex -0.0009297265733273724 0.0036210459285052044 -0.3
vertex 0.0 0.0 -0.3
vertex -0.001155259325401092 0.0035555226069551283 -0.3
endloop
endfacet
facet normal -0.27899110603922833 0.9602936856769435 0.0
outer loop
vertex -0.0009297265733273724 0.0036210459285052044 -0.3
vertex -0.001155259325401092 0.0035555226069551283 -0.3
vertex -0.0009297265733273724 0.0036210459285052044 0.3
endloop
endfacet
facet normal -0.27899110603922833 0.9602936856769435 0.0
outer loop
vertex -0.0009297265733273724 0.0036210459285052044 0.3
vertex -0.001155259325401092 0.0035555226069551283 -0.3
vertex -0.001155259325401092 0.0035555226069551283 0.3
endloop
endfacet
facet normal 0.0 0.0 1.0
outer loop
vertex -0.0009297265733273724 0.0036210459285052044 0.3
vertex -0.001155259325401092 0.0035555226069551283 0.3
vertex 0.0 0.0 0.3
endloop
endfacet
facet normal -0.0 -0.0 -1.0
outer loop
vertex -0.001155259325401092 0.0035555226069551283 -0.3
vertex 0.0 0.0 -0.3
vertex -0.0013762327967052346 0.0034759672620391672 -0.3
endloop
endfacet
facet normal -0.33873792024529237 0.9408807689542252 0.0
outer loop
vertex -0.001155259325401092 0.0035555226069551283 -0.3
vertex -0.0013762327967052346 0.0034759672620391672 -0.3
vertex -0.001155259325401092 0.0035555226069551283 0.3
endloop
endfacet
facet normal -0.33873792024529237 0.9408807689542252 0.0
outer loop
vertex -0.001155259325401092 0.0035555226069551283 0.3
vertex -0.0013762327967052346 0.0034759672620391672 -0.3
vertex -0.0013762327967052346 0.0034759672620391672 0.3
endloop
endfacet
facet normal 0.0 0.0 1.0
outer loop
vertex -0.001155259325401092 0.0035555226069551283 0.3
vertex -0.0013762327967052346 0.0034759672620391672 0.3
vertex 0.0 0.0 0.3
endloop
endfacet
facet normal -0.0 -0.0 -1.0
outer loop
vertex -0.0013762327967052346 0.0034759672620391672 -0.3
vertex 0.0 0.0 -0.3
vertex -0.0015917749059017404 0.003382693862358325 -0.3
endloop
endfacet
facet normal -0.3971478906347805 0.9177546256839811 0.0
outer loop
vertex -0.0013762327967052346 0.0034759672620391672 -0.3
vertex -0.0015917749059017404 0.003382693862358325 -0.3
vertex -0.0013762327967052346 0.0034759672620391672 0.3
endloop
endfacet
facet normal -0.3971478906347805 0.9177546256839811 0.0
outer loop
vertex -0.0013762327967052346 0.0034759672620391672 0.3
vertex -0.0015917749059017404 0.003382693862358325 -0.3
vertex -0.0015917749059017404 0.003382693862358325 0.3
endloop
endfacet
facet normal 0.0 0.0 1.0
outer loop
vertex -0.0013762327967052346 0.0034759672620391672 0.3
vertex -0.0015917749059017404 0.003382693862358325 0.3
vertex 0.0 0.0 0.3
endloop
endfacet
facet normal -0.0 -0.0 -0.9999999999999999
outer loop
vertex -0.0015917749059017404 0.003382693862358325 -0.3
vertex 0.0 0.0 -0.3
vertex -0.001801035006757433 0.0032760705154085785 -0.3
endloop
endfacet
facet normal -0.45399049973954714 0.8910065241883677 0.0
outer loop
vertex -0.0015917749059017404 0.003382693862358325 -0.3
vertex -0.001801035006757433 0.0032760705154085785 -0.3
vertex -0.0015917749059017404 0.003382693862358325 0.3
endloop
endfacet
facet normal -0.45399049973954714 0.8910065241883677 0.0
outer loop
vertex -0.0015917749059017404 0.003382693862358325 0.3
vertex -0.001801035006757433 0.0032760705154085785 -0.3
vertex -0.001801035006757433 0.0032760705154085785 0.3
endloop
endfacet
facet normal 0.0 0.0 1.0
outer loop
vertex -0.0015917749059017404 0.003382693862358325 0.3
vertex -0.001801035006757433 0.0032760705154085785 0.3
vertex 0.0 0.0 0.3
endloop
endfacet
facet normal -0.0 -0.0 -1.0
outer loop
vertex -0.001801035006757433 0.0032760705154085785 -0.3
vertex 0.0 0.0 -0.3
vertex -0.002003187245256081 0.0031565180148287655 -0.3
endloop
endfacet
facet normal -0.5090414157503709 0.8607420270039438 0.0
outer loop
vertex -0.001801035006757433 0.0032760705154085785 -0.3
vertex -0.002003187245256081 0.0031565180148287655 -0.3
vertex -0.001801035006757433 0.0032760705154085785 0.3
endloop
endfacet
facet normal -0.5090414157503709 0.8607420270039438 0.0
outer loop
vertex -0.001801035006757433 0.0032760705154085785 0.3
vertex -0.002003187245256081 0.0031565180148287655 -0.3
vertex -0.002003187245256081 0.0031565180148287655 0.3
endloop
endfacet
facet normal 0.0 0.0 1.0
outer loop
vertex -0.001801035006757433 0.0032760705154085785 0.3
vertex -0.002003187245256081 0.0031565180148287655 0.3
vertex 0.0 0.0 0.3
endloop
endfacet
facet normal -0.0 -0.0 -1.0
outer loop
vertex -0.002003187245256081 0.0031565180148287655 -0.3
vertex 0.0 0.0 -0.3
vertex -0.002197433818866902 0.0030245081797203323 -0.3
endloop
endfacet
facet normal -0.5620833778521315 0.8270805742745614 0.0
outer loop
vertex -0.002003187245256081 0.0031565180148287655 -0.3
vertex -0.002197433818866902 0.0030245081797203323 -0.3
vertex -0.002003187245256081 0.0031565180148287655 0.3
endloop
endfacet
facet normal -0.5620833778521315 0.8270805742745614 0.0
outer loop
vertex -0.002003187245256081 0.0031565180148287655 0.3
vertex -0.002197433818866902 0.0030245081797203323 -0.3
vertex -0.002197433818866902 0.0030245081797203323 0.3
endloop
endfacet
facet normal 0.0 0.0 1.0
outer loop
vertex -0.002003187245256081 0.0031565180148287655 0.3
vertex -0.002197433818866902 0.0030245081797203323 0.3
vertex 0.0 0.0 0.3
endloop
endfacet
facet normal -0.0 -0.0 -1.0
outer loop
vertex -0.002197433818866902 0.0030245081797203323 -0.3
vertex 0.0 0.0 -0.3
vertex -0.0023830081251066757 0.0028805619925928944 -0.3
endloop
endfacet
facet normal -0.6129070536529745 0.7901550123756919 0.0
outer loop
vertex -0.002197433818866902 0.0030245081797203323 -0.3
vertex -0.0023830081251066757 0.0028805619925928944 -0.3
vertex -0.002197433818866902 0.0030245081797203323 0.3
endloop
endfacet
facet normal -0.6129070536529745 0.7901550123756919 0.0
outer loop
vertex -0.002197433818866902 0.0030245081797203323 0.3
vertex -0.0023830081251066757 0.0028805619925928944 -0.3
vertex -0.0023830081251066757 0.0028805619925928944 0.3
endloop
endfacet
facet normal 0.0 0.0 0.9999999999999999
outer loop
vertex -0.002197433818866902 0.0030245081797203323 0.3
vertex -0.0023830081251066757 0.0028805619925928944 0.3
vertex 0.0 0.0 0.3
endloop
endfacet
facet normal -0.0 -0.0 -1.0
outer loop
vertex -0.0023830081251066757 0.0028805619925928944 -0.3
vertex 0.0 0.0 -0.3
vertex -0.0025591777869695066 0.0027252475432842857 -0.3
endloop
endfacet
facet normal -0.6613118653236535 0.750111069630458 0.0
outer loop
vertex -0.0023830081251066757 0.0028805619925928944 -0.3
vertex -0.0025591777869695066 0.0027252475432842857 -0.3
vertex -0.0023830081251066757 0.0028805619925928944 0.3
endloop
endfacet
facet normal -0.6613118653236535 0.750111069630458 0.0
outer loop
vertex -0.0023830081251066757 0.0028805619925928944 0.3
vertex -0.0025591777869695066 0.0027252475432842857 -0.3
vertex -0.0025591777869695066 0.0027252475432842857 0.3
endloop
endfacet
facet normal 0.0 0.0 1.0
outer loop
vertex -0.0023830081251066757 0.0028805619925928944 0.3
vertex -0.0025591777869695066 0.0027252475432842857 0.3
vertex 0.0 0.0 0.3
endloop
endfacet
facet normal -0.0 -0.0 -0.9999999999999999
outer loop
vertex -0.0025591777869695066 0.0027252475432842857 -0.3
vertex 0.0 0.0 -0.3
vertex -0.0027252475432842866 0.0025591777869695058 -0.3
endloop
endfacet
facet normal -0.7071067811865476 0.7071067811865476 0.0
outer loop
vertex -0.0025591777869695066 0.0027252475432842857 -0.3
vertex -0.0027252475432842866 0.0025591777869695058 -0.3
vertex -0.0025591777869695066 0.0027252475432842857 0.3
endloop
endfacet
facet normal -0.7071067811865476 0.7071067811865476 0.0
outer loop
vertex -0.0025591777869695066 0.0027252475432842857 0.3
vertex -0.0027252475432842866 0.0025591777869695058 -0.3
vertex -0.0027252475432842866 0.0025591777869695058 0.3
endloop
endfacet
facet normal 0.0 0.0 1.0
outer loop
vertex -0.0025591777869695066 0.0027252475432842857 0.3
vertex -0.0027252475432842866 0.0025591777869695058 0.3
vertex 0.0 0.0 0.3
endloop
endfacet
facet normal -0.0 -0.0 -1.0
outer loop
vertex -0.0027252475432842866 0.0025591777869695058 -0.3
vertex 0.0 0.0 -0.3
vertex -0.0028805619925928944 0.002383008125106675 -0.3
endloop
endfacet
facet normal -0.7501110696304599 0.6613118653236514 0.0
outer loop
vertex -0.0027252475432842866 0.0025591777869695058 -0.3
vertex -0.0028805619925928944 0.002383008125106675 -0.3
vertex -0.0027252475432842866 0.0025591777869695058 0.3
endloop
endfacet
facet normal -0.7501110696304599 0.6613118653236514 0.0
outer loop
vertex -0.0027252475432842866 0.0025591777869695058 0.3
vertex -0.0028805619925928944 0.002383008125106675 -0.3
vertex -0.0028805619925928944 0.002383008125106675 0.3
endloop
endfacet
facet normal 0.0 0.0 1.0
outer loop
vertex -0.0027252475432842866 0.0025591777869695058 0.3
vertex -0.0028805619925928944 0.002383008125106675 0.3
vertex 0.0 0.0 0.3
endloop
endfacet
facet normal -0.0 -0.0 -1.0
outer loop
vertex -0.0028805619925928944 0.002383008125106675 -0.3
vertex 0.0 0.0 -0.3
vertex -0.003024508179720332 0.002197433818866903 -0.3
endloop
endfacet
facet normal -0.7901550123756901 0.6129070536529769 0.0
outer loop
vertex -0.0028805619925928944 0.002383008125106675 -0.3
vertex -0.003024508179720332 0.002197433818866903 -0.3
vertex -0.0028805619925928944 0.002383008125106675 0.3
endloop
endfacet
facet normal -0.7901550123756901 0.6129070536529769 0.0
outer loop
vertex -0.0028805619925928944 0.002383008125106675 0.3
vertex -0.003024508179720332 0.002197433818866903 -0.3
vertex -0.003024508179720332 0.002197433818866903 0.3
endloop
endfacet
facet normal 0.0 0.0 1.0
outer loop
vertex -0.0028805619925928944 0.002383008125106675 0.3
vertex -0.003024508179720332 0.002197433818866903 0.3
vertex 0.0 0.0 0.3
endloop
endfacet
facet normal -0.0 -0.0 -1.0
outer loop
vertex -0.003024508179720332 0.002197433818866903 -0.3
vertex 0.0 0.0 -0.3
vertex -0.003156518014828766 0.0020031872452560807 -0.3
endloop
endfacet
facet normal -0.8270805742745613 0.5620833778521314 0.0
outer loop
vertex -0.003024508179720332 0.002197433818866903 -0.3
vertex -0.003156518014828766 0.0020031872452560807 -0.3
vertex -0.003024508179720332 0.002197433818866903 0.3
endloop
endfacet
facet normal -0.8270805742745613 0.5620833778521314 0.0
outer loop
vertex -0.003024508179720332 0.002197433818866903 0.3
vertex -0.003156518014828766 0.0020031872452560807 -0.3
vertex -0.003156518014828766 0.0020031872452560807 0.3
endloop
endfacet
facet normal 0.0 0.0 1.0
outer loop
vertex -0.003024508179720332 0.002197433818866903 0.3
vertex -0.003156518014828766 0.0020031872452560807 0.3
vertex 0.0 0.0 0.3
endloop
endfacet
facet normal -0.0 -0.0 -1.0
outer loop
vertex -0.003156518014828766 0.0020031872452560807 -0.3
vertex 0.0 0.0 -0.3
vertex -0.003276070515408579 0.0018010350067574322 -0.3
endloop
endfacet
facet normal -0.8607420270039443 0.5090414157503701 0.0
outer loop
vertex -0.003156518014828766 0.0020031872452560807 -0.3
vertex -0.003276070515408579 0.0018010350067574322 -0.3
vertex -0.003156518014828766 0.0020031872452560807 0.3
endloop
endfacet
facet normal -0.8607420270039443 0.5090414157503701 0.0
outer loop
vertex -0.003156518014828766 0.0020031872452560807 0.3
vertex -0.003276070515408579 0.0018010350067574322 -0.3
vertex -0.003276070515408579 0.0018010350067574322 0.3
endloop
endfacet
facet normal 0.0 0.0 1.0
outer loop
vertex -0.003156518014828766 0.0020031872452560807 0.3
vertex -0.003276070515408579 0.0018010350067574322 0.3
vertex 0.0 0.0 0.3
endloop
endfacet
facet normal -0.0 -0.0 -1.0
outer loop
vertex -0.003276070515408579 0.0018010350067574322 -0.3
vertex 0.0 0.0 -0.3
vertex -0.0033826938623583254 0.0015917749059017395 -0.3
endloop
endfacet
facet normal -0.8910065241883677 0.45399049973954714 0.0
outer loop
vertex -0.003276070515408579 0.0018010350067574322 -0.3
vertex -0.0033826938623583254 0.0015917749059017395 -0.3
vertex -0.003276070515408579 0.0018010350067574322 0.3
endloop
endfacet
facet normal -0.8910065241883677 0.45399049973954714 0.0
outer loop
vertex -0.003276070515408579 0.0018010350067574322 0.3
vertex -0.0033826938623583254 0.0015917749059017395 -0.3
vertex -0.0033826938623583254 0.0015917749059017395 0.3
endloop
endfacet
facet normal 0.0 0.0 1.0
outer loop
vertex -0.003276070515408579 0.0018010350067574322 0.3
vertex -0.0033826938623583254 0.0015917749059017395 0.3
vertex 0.0 0.0 0.3
endloop
endfacet
facet normal -0.0 -0.0 -1.0
outer loop
vertex -0.0033826938623583254 0.0015917749059017395 -0.3
vertex 0.0 0.0 -0.3
vertex -0.0034759672620391677 0.0013762327967052337 -0.3
endloop
endfacet
facet normal -0.9177546256839811 0.3971478906347805 0.0
outer loop
vertex -0.0033826938623583254 0.0015917749059017395 -0.3
vertex -0.0034759672620391677 0.0013762327967052337 -0.3
vertex -0.0033826938623583254 0.0015917749059017395 0.3
endloop
endfacet
facet normal -0.9177546256839811 0.3971478906347805 0.0
outer loop
vertex -0.0033826938623583254 0.0015917749059017395 0.3
vertex -0.0034759672620391677 0.0013762327967052337 -0.3
vertex -0.0034759672620391677 0.0013762327967052337 0.3
endloop
endfacet
facet normal 0.0 0.0 1.0
outer loop
vertex -0.0033826938623583254 0.0015917749059017395 0.3
vertex -0.0034759672620391677 0.0013762327967052337 0.3
vertex 0.0 0.0 0.3
endloop
endfacet
facet normal -0.0 -0.0 -0.9999999999999999
outer loop
vertex -0.0034759672620391677 0.0013762327967052337 -0.3
vertex 0.0 0.0 -0.3
vertex -0.0035555226069551287 0.0011552593254010902 -0.3
endloop
endfacet
facet normal -0.9408807689542257 0.3387379202452912 0.0
outer loop
vertex -0.0034759672620391677 0.0013762327967052337 -0.3
vertex -0.0035555226069551287 0.0011552593254010902 -0.3
vertex -0.0034759672620391677 0.0013762327967052337 0.3
endloop
endfacet
facet normal -0.9408807689542257 0.3387379202452912 0.0
outer loop
vertex -0.0034759672620391677 0.0013762327967052337 0.3
vertex -0.0035555226069551287 0.0011552593254010902 -0.3
vertex -0.0035555226069551287 0.0011552593254010902 0.3
endloop
endfacet
facet normal 0.0 0.0 1.0
outer loop
vertex -0.0034759672620391677 0.0013762327967052337 0.3
vertex -0.0035555226069551287 0.0011552593254010902 0.3
vertex 0.0 0.0 0.3
endloop
endfacet
facet normal -0.0 -0.0 -1.0
outer loop
vertex -0.0035555226069551287 0.0011552593254010902 -0.3
vertex 0.0 0.0 -0.3
vertex -0.0036210459285052044 0.0009297265733273723 -0.3
endloop
endfacet
facet normal -0.9602936856769433 0.2789911060392285 0.0
outer loop
vertex -0.0035555226069551287 0.0011552593254010902 -0.3
vertex -0.0036210459285052044 0.0009297265733273723 -0.3
vertex -0.0035555226069551287 0.0011552593254010902 0.3
endloop
endfacet
facet normal -0.9602936856769433 0.2789911060392285 0.0
outer loop
vertex -0.0035555226069551287 0.0011552593254010902 0.3
vertex -0.0036210459285052044 0.0009297265733273723 -0.3
vertex -0.0036210459285052044 0.0009297265733273723 0.3
endloop
endfacet
facet normal 0.0 0.0 1.0
outer loop
vertex -0.0035555226069551287 0.0011552593254010902 0.3
vertex -0.0036210459285052044 0.0009297265733273723 0.3
vertex 0.0 0.0 0.3
endloop
endfacet
facet normal -0.0 -0.0 -1.0
outer loop
vertex -0.0036210459285052044 0.0009297265733273723 -0.3
vertex 0.0 0.0 -0.3
vertex -0.0036722786360739966 0.0007005246152203978 -0.3
endloop
endfacet
facet normal -0.9759167619387469 0.21814324139654448 0.0
outer loop
vertex -0.0036210459285052044 0.0009297265733273723 -0.3
vertex -0.0036722786360739966 0.0007005246152203978 -0.3
vertex -0.0036210459285052044 0.0009297265733273723 0.3
endloop
endfacet
facet normal -0.9759167619387469 0.21814324139654448 0.0
outer loop
vertex -0.0036210459285052044 0.0009297265733273723 0.3
vertex -0.0036722786360739966 0.0007005246152203978 -0.3
vertex -0.0036722786360739966 0.0007005246152203978 0.3
endloop
endfacet
facet normal 0.0 0.0 1.0
outer loop
vertex -0.0036210459285052044 0.0009297265733273723 0.3
vertex -0.0036722786360739966 0.0007005246152203978 0.3
vertex 0.0 0.0 0.3
endloop
endfacet
facet normal -0.0 -0.0 -1.0
outer loop
vertex -0.0036722786360739966 0.0007005246152203978 -0.3
vertex 0.0 0.0 -0.3
vertex -0.003709018537570727 0.0004685580064964025 -0.3
endloop
endfacet
facet normal -0.9876883405951379 0.15643446504023048 0.0
outer loop
vertex -0.0036722786360739966 0.0007005246152203978 -0.3
vertex -0.003709018537570727 0.0004685580064964025 -0.3
vertex -0.0036722786360739966 0.0007005246152203978 0.3
endloop
endfacet
facet normal -0.9876883405951379 0.15643446504023048 0.0
outer loop
vertex -0.0036722786360739966 0.0007005246152203978 0.3
vertex -0.003709018537570727 0.0004685580064964025 -0.3
vertex -0.003709018537570727 0.0004685580064964025 0.3
endloop
endfacet
facet normal 0.0 0.0 1.0
outer loop
vertex -0.0036722786360739966 0.0007005246152203978 0.3
vertex -0.003709018537570727 0.0004685580064964025 0.3
vertex 0.0 0.0 0.3
endloop
endfacet
facet normal -0.0 -0.0 -1.0
outer loop
vertex -0.003709018537570727 0.0004685580064964025 -0.3
vertex 0.0 0.0 -0.3
vertex -0.0037311206373890535 0.00023474221338455698 -0.3
endloop
endfacet
facet normal -0.9955619646030801 0.09410831331851369 0.0
outer loop
vertex -0.003709018537570727 0.0004685580064964025 -0.3
vertex -0.0037311206373890535 0.00023474221338455698 -0.3
vertex -0.003709018537570727 0.0004685580064964025 0.3
endloop
endfacet
facet normal -0.9955619646030801 0.09410831331851369 0.0
outer loop
vertex -0.003709018537570727 0.0004685580064964025 0.3
vertex -0.0037311206373890535 0.00023474221338455698 -0.3
vertex -0.0037311206373890535 0.00023474221338455698 0.3
endloop
endfacet
facet normal 0.0 0.0 1.0
outer loop
vertex -0.003709018537570727 0.0004685580064964025 0.3
vertex -0.0037311206373890535 0.00023474221338455698 0.3
vertex 0.0 0.0 0.3
endloop
endfacet
facet normal 0.0 -0.0 -1.0
outer loop
vertex -0.0037311206373890535 0.00023474221338455698 -0.3
vertex 0.0 0.0 -0.3
vertex -0.0037384977086384816 -1.2023925682051498e-18 -0.3
endloop
endfacet
facet normal -0.9995065603657316 0.03141075907812753 0.0
outer loop
vertex -0.0037311206373890535 0.00023474221338455698 -0.3
vertex -0.0037384977086384816 -1.2023925682051498e-18 -0.3
vertex -0.0037311206373890535 0.00023474221338455698 0.3
endloop
endfacet
facet normal -0.9995065603657316 0.03141075907812753 0.0
outer loop
vertex -0.0037311206373890535 0.00023474221338455698 0.3
vertex -0.0037384977086384816 -1.2023925682051498e-18 -0.3
vertex -0.0037384977086384816 -1.2023925682051498e-18 0.3
endloop
endfacet
facet normal -0.0 0.0 1.0
outer loop
vertex -0.0037311206373890535 0.00023474221338455698 0.3
vertex -0.0037384977086384816 -1.2023925682051498e-18 0.3
vertex 0.0 0.0 0.3
endloop
endfacet
facet normal 0.0 -0.0 -1.0
outer loop
vertex -0.0037384977086384816 -1.2023925682051498e-18 -0.3
vertex 0.0 0.0 -0.3
vertex -0.0037311206373890535 -0.00023474221338455777 -0.3
endloop
endfacet
facet normal -0.9995065603657316 -0.031410759078127744 0.0
outer loop
vertex -0.0037384977086384816 -1.2023925682051498e-18 -0.3
vertex -0.0037311206373890535 -0.00023474221338455777 -0.3
vertex -0.0037384977086384816 -1.2023925682051498e-18 0.3
endloop
endfacet
facet normal -0.9995065603657316 -0.031410759078127744 0.0
outer loop
vertex -0.0037384977086384816 -1.2023925682051498e-18 0.3
vertex -0.0037311206373890535 -0.00023474221338455777 -0.3
vertex -0.0037311206373890535 -0.00023474221338455777 0.3
endloop
endfacet
facet normal -0.0 0.0 1.0
outer loop
vertex -0.0037384977086384816 -1.2023925682051498e-18 0.3
vertex -0.0037311206373890535 -0.00023474221338455777 0.3
vertex 0.0 0.0 0.3
endloop
endfacet
facet normal 0.0 -0.0 -1.0
outer loop
vertex -0.0037311206373890535 -0.00023474221338455777 -0.3
vertex 0.0 0.0 -0.3
vertex -0.003709018537570727 -0.0004685580064964032 -0.3
endloop
endfacet
facet normal -0.9955619646030801 -0.09410831331851373 0.0
outer loop
vertex -0.0037311206373890535 -0.00023474221338455777 -0.3
vertex -0.003709018537570727 -0.0004685580064964032 -0.3
vertex -0.0037311206373890535 -0.00023474221338455777 0.3
endloop
endfacet
facet normal -0.9955619646030801 -0.09410831331851373 0.0
outer loop
vertex -0.0037311206373890535 -0.00023474221338455777 0.3
vertex -0.003709018537570727 -0.0004685580064964032 -0.3
vertex -0.003709018537570727 -0.0004685580064964032 0.3
endloop
endfacet
facet normal -0.0 0.0 1.0
outer loop
vertex -0.0037311206373890535 -0.00023474221338455777 0.3
vertex -0.003709018537570727 -0.0004685580064964032 0.3
vertex 0.0 0.0 0.3
endloop
endfacet
facet normal 0.0 -0.0 -1.0
outer loop
vertex -0.003709018537570727 -0.0004685580064964032 -0.3
vertex 0.0 0.0 -0.3
vertex -0.003672278636073996 -0.0007005246152203985 -0.3
endloop
endfacet
facet normal -0.9876883405951374 -0.15643446504023228 0.0
outer loop
vertex -0.003709018537570727 -0.0004685580064964032 -0.3
vertex -0.003672278636073996 -0.0007005246152203985 -0.3
vertex -0.003709018537570727 -0.0004685580064964032 0.3
endloop
endfacet
facet normal -0.9876883405951374 -0.15643446504023228 0.0
outer loop
vertex -0.003709018537570727 -0.0004685580064964032 0.3
vertex -0.003672278636073996 -0.0007005246152203985 -0.3
vertex -0.003672278636073996 -0.0007005246152203985 0.3
endloop
endfacet
facet normal -0.0 0.0 1.0
outer loop
vertex -0.003709018537570727 -0.0004685580064964032 0.3
vertex -0.003672278636073996 -0.0007005246152203985 0.3
vertex 0.0 0.0 0.3
endloop
endfacet
facet normal 0.0 -0.0 -1.0
outer loop
vertex -0.003672278636073996 -0.0007005246152203985 -0.3
vertex 0.0 0.0 -0.3
vertex -0.0036210459285052044 -0.000929726573327373 -0.3
endloop
endfacet
facet normal -0.9759167619387472 -0.21814324139654276 0.0
outer loop
vertex -0.003672278636073996 -0.0007005246152203985 -0.3
vertex -0.0036210459285052044 -0.000929726573327373 -0.3
vertex -0.003672278636073996 -0.0007005246152203985 0.3
endloop
endfacet
facet normal -0.9759167619387472 -0.21814324139654276 0.0
outer loop
vertex -0.003672278636073996 -0.0007005246152203985 0.3
vertex -0.0036210459285052044 -0.000929726573327373 -0.3
vertex -0.0036210459285052044 -0.000929726573327373 0.3
endloop
endfacet
facet normal -0.0 0.0 1.0
outer loop
vertex -0.003672278636073996 -0.0007005246152203985 0.3
vertex -0.0036210459285052044 -0.000929726573327373 0.3
vertex 0.0 0.0 0.3
endloop
endfacet
facet normal 0.0 -0.0 -0.9999999999999999
outer loop
vertex -0.0036210459285052044 -0.000929726573327373 -0.3
vertex 0.0 0.0 -0.3
vertex -0.0035555226069551283 -0.0011552593254010926 -0.3
endloop
endfacet
facet normal -0.9602936856769434 -0.27899110603922816 0.0
outer loop
vertex -0.0036210459285052044 -0.000929726573327373 -0.3
vertex -0.0035555226069551283 -0.0011552593254010926 -0.3
vertex -0.0036210459285052044 -0.000929726573327373 0.3
endloop
endfacet
facet normal -0.9602936856769434 -0.27899110603922816 0.0
outer loop
vertex -0.0036210459285052044 -0.000929726573327373 0.3
vertex -0.0035555226069551283 -0.0011552593254010926 -0.3
vertex -0.0035555226069551283 -0.0011552593254010926 0.3
endloop
endfacet
facet normal -0.0 0.0 1.0
outer loop
vertex -0.0036210459285052044 -0.000929726573327373 0.3
vertex -0.0035555226069551283 -0.0011552593254010926 0.3
vertex 0.0 0.0 0.3
endloop
endfacet
facet normal 0.0 -0.0 -1.0
outer loop
vertex -0.0035555226069551283 -0.0011552593254010926 -0.3
vertex 0.0 0.0 -0.3
vertex -0.003475967262039167 -0.0013762327967052359 -0.3
endloop
endfacet
facet normal -0.9408807689542248 -0.33873792024529303 0.0
outer loop
vertex -0.0035555226069551283 -0.0011552593254010926 -0.3
vertex -0.003475967262039167 -0.0013762327967052359 -0.3
vertex -0.0035555226069551283 -0.0011552593254010926 0.3
endloop
endfacet
facet normal -0.9408807689542248 -0.33873792024529303 0.0
outer loop
vertex -0.0035555226069551283 -0.0011552593254010926 0.3
vertex -0.003475967262039167 -0.0013762327967052359 -0.3
vertex -0.003475967262039167 -0.0013762327967052359 0.3
endloop
endfacet
facet normal -0.0 0.0 1.0
outer loop
vertex -0.0035555226069551283 -0.0011552593254010926 0.3
vertex -0.003475967262039167 -0.0013762327967052359 0.3
vertex 0.0 0.0 0.3
endloop
endfacet
facet normal 0.0 -0.0 -1.0
outer loop
vertex -0.003475967262039167 -0.0013762327967052359 -0.3
vertex 0.0 0.0 -0.3
vertex -0.003382693862358325 -0.0015917749059017401 -0.3
endloop
endfacet
facet normal -0.9177546256839809 -0.3971478906347813 0.0
outer loop
vertex -0.003475967262039167 -0.0013762327967052359 -0.3
vertex -0.003382693862358325 -0.0015917749059017401 -0.3
vertex -0.003475967262039167 -0.0013762327967052359 0.3
endloop
endfacet
facet normal -0.9177546256839809 -0.3971478906347813 0.0
outer loop
vertex -0.003475967262039167 -0.0013762327967052359 0.3
vertex -0.003382693862358325 -0.0015917749059017401 -0.3
vertex -0.003382693862358325 -0.0015917749059017401 0.3
endloop
endfacet
facet normal -0.0 0.0 1.0
outer loop
vertex -0.003475967262039167 -0.0013762327967052359 0.3
vertex -0.003382693862358325 -0.0015917749059017401 0.3
vertex 0.0 0.0 0.3
endloop
endfacet
facet normal 0.0 -0.0 -0.9999999999999999
outer loop
vertex -0.003382693862358325 -0.0015917749059017401 -0.3
vertex 0.0 0.0 -0.3
vertex -0.0032760705154085785 -0.0018010350067574328 -0.3
endloop
endfacet
facet normal -0.8910065241883677 -0.45399049973954714 0.0
outer loop
vertex -0.003382693862358325 -0.0015917749059017401 -0.3
vertex -0.0032760705154085785 -0.0018010350067574328 -0.3
vertex -0.003382693862358325 -0.0015917749059017401 0.3
endloop
endfacet
facet normal -0.8910065241883677 -0.45399049973954714 0.0
outer loop
vertex -0.003382693862358325 -0.0015917749059017401 0.3
vertex -0.0032760705154085785 -0.0018010350067574328 -0.3
vertex -0.0032760705154085785 -0.0018010350067574328 0.3
endloop
endfacet
facet normal -0.0 0.0 1.0
outer loop
vertex -0.003382693862358325 -0.0015917749059017401 0.3
vertex -0.0032760705154085785 -0.0018010350067574328 0.3
vertex 0.0 0.0 0.3
endloop
endfacet
facet normal 0.0 -0.0 -1.0
outer loop
vertex -0.0032760705154085785 -0.0018010350067574328 -0.3
vertex 0.0 0.0 -0.3
vertex -0.0031565180148287655 -0.0020031872452560807 -0.3
endloop
endfacet
facet normal -0.8607420270039438 -0.5090414157503714 0.0
outer loop
vertex -0.0032760705154085785 -0.0018010350067574328 -0.3
vertex -0.0031565180148287655 -0.0020031872452560807 -0.3
vertex -0.0032760705154085785 -0.0018010350067574328 0.3
endloop
endfacet
facet normal -0.8607420270039438 -0.5090414157503714 0.0
outer loop
vertex -0.0032760705154085785 -0.0018010350067574328 0.3
vertex -0.0031565180148287655 -0.0020031872452560807 -0.3
vertex -0.0031565180148287655 -0.0020031872452560807 0.3
endloop
endfacet
facet normal -0.0 0.0 1.0
outer loop
vertex -0.0032760705154085785 -0.0018010350067574328 0.3
vertex -0.0031565180148287655 -0.0020031872452560807 0.3
vertex 0.0 0.0 0.3
endloop
endfacet
facet normal 0.0 -0.0 -1.0
outer loop
vertex -0.0031565180148287655 -0.0020031872452560807 -0.3
vertex 0.0 0.0 -0.3
vertex -0.0030245081797203315 -0.0021974338188669035 -0.3
endloop
endfacet
facet normal -0.8270805742745618 -0.5620833778521306 0.0
outer loop
vertex -0.0031565180148287655 -0.0020031872452560807 -0.3
vertex -0.0030245081797203315 -0.0021974338188669035 -0.3
vertex -0.0031565180148287655 -0.0020031872452560807 0.3
endloop
endfacet
facet normal -0.8270805742745618 -0.5620833778521306 0.0
outer loop
vertex -0.0031565180148287655 -0.0020031872452560807 0.3
vertex -0.0030245081797203315 -0.0021974338188669035 -0.3
vertex -0.0030245081797203315 -0.0021974338188669035 0.3
endloop
endfacet
facet normal -0.0 0.0 1.0
outer loop
vertex -0.0031565180148287655 -0.0020031872452560807 0.3
vertex -0.0030245081797203315 -0.0021974338188669035 0.3
vertex 0.0 0.0 0.3
endloop
endfacet
facet normal 0.0 -0.0 -1.0
outer loop
vertex -0.0030245081797203315 -0.0021974338188669035 -0.3
vertex 0.0 0.0 -0.3
vertex -0.0028805619925928935 -0.0023830081251066766 -0.3
endloop
endfacet
facet normal -0.7901550123756913 -0.6129070536529755 0.0
outer loop
vertex -0.0030245081797203315 -0.0021974338188669035 -0.3
vertex -0.0028805619925928935 -0.0023830081251066766 -0.3
vertex -0.0030245081797203315 -0.0021974338188669035 0.3
endloop
endfacet
facet normal -0.7901550123756913 -0.6129070536529755 0.0
outer loop
vertex -0.0030245081797203315 -0.0021974338188669035 0.3
vertex -0.0028805619925928935 -0.0023830081251066766 -0.3
vertex -0.0028805619925928935 -0.0023830081251066766 0.3
endloop
endfacet
facet normal -0.0 0.0 1.0
outer loop
vertex -0.0030245081797203315 -0.0021974338188669035 0.3
vertex -0.0028805619925928935 -0.0023830081251066766 0.3
vertex 0.0 0.0 0.3
endloop
endfacet
facet normal 0.0 -0.0 -1.0
outer loop
vertex -0.0028805619925928935 -0.0023830081251066766 -0.3
vertex 0.0 0.0 -0.3
vertex -0.002725247543284286 -0.0025591777869695066 -0.3
endloop
endfacet
facet normal -0.7501110696304591 -0.6613118653236523 0.0
outer loop
vertex -0.0028805619925928935 -0.0023830081251066766 -0.3
vertex -0.002725247543284286 -0.0025591777869695066 -0.3
vertex -0.0028805619925928935 -0.0023830081251066766 0.3
endloop
endfacet
facet normal -0.7501110696304591 -0.6613118653236523 0.0
outer loop
vertex -0.0028805619925928935 -0.0023830081251066766 0.3
vertex -0.002725247543284286 -0.0025591777869695066 -0.3
vertex -0.002725247543284286 -0.0025591777869695066 0.3
endloop
endfacet
facet normal -0.0 0.0 1.0
outer loop
vertex -0.0028805619925928935 -0.0023830081251066766 0.3
vertex -0.002725247543284286 -0.0025591777869695066 0.3
vertex 0.0 0.0 0.3
endloop
endfacet
facet normal 0.0 -0.0 -1.0
outer loop
vertex -0.002725247543284286 -0.0025591777869695066 -0.3
vertex 0.0 0.0 -0.3
vertex -0.002559177786969506 -0.002725247543284286 -0.3
endloop
endfacet
facet normal -0.7071067811865466 -0.7071067811865485 0.0
outer loop
vertex -0.002725247543284286 -0.0025591777869695066 -0.3
vertex -0.002559177786969506 -0.002725247543284286 -0.3
vertex -0.002725247543284286 -0.0025591777869695066 0.3
endloop
endfacet
facet normal -0.7071067811865466 -0.7071067811865485 0.0
outer loop
vertex -0.002725247543284286 -0.0025591777869695066 0.3
vertex -0.002559177786969506 -0.002725247543284286 -0.3
vertex -0.002559177786969506 -0.002725247543284286 0.3
endloop
endfacet
facet normal -0.0 0.0 1.0
outer loop
vertex -0.002725247543284286 -0.0025591777869695066 0.3
vertex -0.002559177786969506 -0.002725247543284286 0.3
vertex 0.0 0.0 0.3
endloop
endfacet
facet normal 0.0 -0.0 -1.0
outer loop
vertex -0.002559177786969506 -0.002725247543284286 -0.3
vertex 0.0 0.0 -0.3
vertex -0.002383008125106675 -0.0028805619925928944 -0.3
endloop
endfacet
facet normal -0.6613118653236516 -0.7501110696304598 0.0
outer loop
vertex -0.002559177786969506 -0.002725247543284286 -0.3
vertex -0.002383008125106675 -0.0028805619925928944 -0.3
vertex -0.002559177786969506 -0.002725247543284286 0.3
endloop
endfacet
facet normal -0.6613118653236516 -0.7501110696304598 0.0
outer loop
vertex -0.002559177786969506 -0.002725247543284286 0.3
vertex -0.002383008125106675 -0.0028805619925928944 -0.3
vertex -0.002383008125106675 -0.0028805619925928944 0.3
endloop
endfacet
facet normal -0.0 0.0 1.0
outer loop
vertex -0.002559177786969506 -0.002725247543284286 0.3
vertex -0.002383008125106675 -0.0028805619925928944 0.3
vertex 0.0 0.0 0.3
endloop
endfacet
facet normal 0.0 -0.0 -1.0
outer loop
vertex -0.002383008125106675 -0.0028805619925928944 -0.3
vertex 0.0 0.0 -0.3
vertex -0.002197433818866903 -0.003024508179720332 -0.3
endloop
endfacet
facet normal -0.6129070536529769 -0.7901550123756901 0.0
outer loop
vertex -0.002383008125106675 -0.0028805619925928944 -0.3
vertex -0.002197433818866903 -0.003024508179720332 -0.3
vertex -0.002383008125106675 -0.0028805619925928944 0.3
endloop
endfacet
facet normal -0.6129070536529769 -0.7901550123756901 0.0
outer loop
vertex -0.002383008125106675 -0.0028805619925928944 0.3
vertex -0.002197433818866903 -0.003024508179720332 -0.3
vertex -0.002197433818866903 -0.003024508179720332 0.3
endloop
endfacet
facet normal -0.0 0.0 1.0
outer loop
vertex -0.002383008125106675 -0.0028805619925928944 0.3
vertex -0.002197433818866903 -0.003024508179720332 0.3
vertex 0.0 0.0 0.3
endloop
endfacet
facet normal 0.0 -0.0 -1.0
outer loop
vertex -0.002197433818866903 -0.003024508179720332 -0.3
vertex 0.0 0.0 -0.3
vertex -0.0020031872452560794 -0.0031565180148287668 -0.3
endloop
endfacet
facet normal -0.5620833778521314 -0.8270805742745613 0.0
outer loop
vertex -0.002197433818866903 -0.003024508179720332 -0.3
vertex -0.0020031872452560794 -0.0031565180148287668 -0.3
vertex -0.002197433818866903 -0.003024508179720332 0.3
endloop
endfacet
facet normal -0.5620833778521314 -0.8270805742745613 0.0
outer loop
vertex -0.002197433818866903 -0.003024508179720332 0.3
vertex -0.0020031872452560794 -0.0031565180148287668 -0.3
vertex -0.0020031872452560794 -0.0031565180148287668 0.3
endloop
endfacet
facet normal -0.0 0.0 1.0
outer loop
vertex -0.002197433818866903 -0.003024508179720332 0.3
vertex -0.0020031872452560794 -0.0031565180148287668 0.3
vertex 0.0 0.0 0.3
endloop
endfacet
facet normal 0.0 -0.0 -1.0
outer loop
vertex -0.0020031872452560794 -0.0031565180148287668 -0.3
vertex 0.0 0.0 -0.3
vertex -0.0018010350067574324 -0.003276070515408579 -0.3
endloop
endfacet
facet normal -0.5090414157503703 -0.8607420270039443 0.0
outer loop
vertex -0.0020031872452560794 -0.0031565180148287668 -0.3
vertex -0.0018010350067574324 -0.003276070515408579 -0.3
vertex -0.0020031872452560794 -0.0031565180148287668 0.3
endloop
endfacet
facet normal -0.5090414157503703 -0.8607420270039443 0.0
outer loop
vertex -0.0020031872452560794 -0.0031565180148287668 0.3
vertex -0.0018010350067574324 -0.003276070515408579 -0.3
vertex -0.0018010350067574324 -0.003276070515408579 0.3
endloop
endfacet
facet normal -0.0 0.0 1.0
outer loop
vertex -0.0020031872452560794 -0.0031565180148287668 0.3
vertex -0.0018010350067574324 -0.003276070515408579 0.3
vertex 0.0 0.0 0.3
endloop
endfacet
facet normal 0.0 -0.0 -1.0
outer loop
vertex -0.0018010350067574324 -0.003276070515408579 -0.3
vertex 0.0 0.0 -0.3
vertex -0.0015917749059017382 -0.0033826938623583262 -0.3
endloop
endfacet
facet normal -0.45399049973954747 -0.8910065241883677 0.0
outer loop
vertex -0.0018010350067574324 -0.003276070515408579 -0.3
vertex -0.0015917749059017382 -0.0033826938623583262 -0.3
vertex -0.0018010350067574324 -0.003276070515408579 0.3
endloop
endfacet
facet normal -0.45399049973954747 -0.8910065241883677 0.0
outer loop
vertex -0.0018010350067574324 -0.003276070515408579 0.3
vertex -0.0015917749059017382 -0.0033826938623583262 -0.3
vertex -0.0015917749059017382 -0.0033826938623583262 0.3
endloop
endfacet
facet normal -0.0 0.0 1.0
outer loop
vertex -0.0018010350067574324 -0.003276070515408579 0.3
vertex -0.0015917749059017382 -0.0033826938623583262 0.3
vertex 0.0 0.0 0.3
endloop
endfacet
facet normal 0.0 -0.0 -1.0
outer loop
vertex -0.0015917749059017382 -0.0033826938623583262 -0.3
vertex 0.0 0.0 -0.3
vertex -0.001376232796705234 -0.0034759672620391677 -0.3
endloop
endfacet
facet normal -0.3971478906347797 -0.9177546256839814 0.0
outer loop
vertex -0.0015917749059017382 -0.0033826938623583262 -0.3
vertex -0.001376232796705234 -0.0034759672620391677 -0.3
vertex -0.0015917749059017382 -0.0033826938623583262 0.3
endloop
endfacet
facet normal -0.3971478906347797 -0.9177546256839814 0.0
outer loop
vertex -0.0015917749059017382 -0.0033826938623583262 0.3
vertex -0.001376232796705234 -0.0034759672620391677 -0.3
vertex -0.001376232796705234 -0.0034759672620391677 0.3
endloop
endfacet
facet normal -0.0 0.0 1.0
outer loop
vertex -0.0015917749059017382 -0.0033826938623583262 0.3
vertex -0.001376232796705234 -0.0034759672620391677 0.3
vertex 0.0 0.0 0.3
endloop
endfacet
facet normal 0.0 -0.0 -0.9999999999999999
outer loop
vertex -0.001376232796705234 -0.0034759672620391677 -0.3
vertex 0.0 0.0 -0.3
vertex -0.001155259325401092 -0.0035555226069551283 -0.3
endloop
endfacet
facet normal -0.33873792024529165 -0.9408807689542253 0.0
outer loop
vertex -0.001376232796705234 -0.0034759672620391677 -0.3
vertex -0.001155259325401092 -0.0035555226069551283 -0.3
vertex -0.001376232796705234 -0.0034759672620391677 0.3
endloop
endfacet
facet normal -0.33873792024529165 -0.9408807689542253 0.0
outer loop
vertex -0.001376232796705234 -0.0034759672620391677 0.3
vertex -0.001155259325401092 -0.0035555226069551283 -0.3
vertex -0.001155259325401092 -0.0035555226069551283 0.3
endloop
endfacet
facet normal -0.0 0.0 1.0
outer loop
vertex -0.001376232796705234 -0.0034759672620391677 0.3
vertex -0.001155259325401092 -0.0035555226069551283 0.3
vertex 0.0 0.0 0.3
endloop
endfacet
facet normal 0.0 -0.0 -1.0
outer loop
vertex -0.001155259325401092 -0.0035555226069551283 -0.3
vertex 0.0 0.0 -0.3
vertex -0.0009297265733273708 -0.003621045928505205 -0.3
endloop
endfacet
facet normal -0.27899110603922816 -0.9602936856769434 0.0
outer loop
vertex -0.001155259325401092 -0.0035555226069551283 -0.3
vertex -0.0009297265733273708 -0.003621045928505205 -0.3
vertex -0.001155259325401092 -0.0035555226069551283 0.3
endloop
endfacet
facet normal -0.27899110603922816 -0.9602936856769434 0.0
outer loop
vertex -0.001155259325401092 -0.0035555226069551283 0.3
vertex -0.0009297265733273708 -0.003621045928505205 -0.3
vertex -0.0009297265733273708 -0.003621045928505205 0.3
endloop
endfacet
facet normal -0.0 0.0 1.0
outer loop
vertex -0.001155259325401092 -0.0035555226069551283 0.3
vertex -0.0009297265733273708 -0.003621045928505205 0.3
vertex 0.0 0.0 0.3
endloop
endfacet
facet normal 0.0 -0.0 -1.0
outer loop
vertex -0.0009297265733273708 -0.003621045928505205 -0.3
vertex 0.0 0.0 -0.3
vertex -0.000700524615220398 -0.0036722786360739966 -0.3
endloop
endfacet
facet normal -0.21814324139654426 -0.9759167619387471 0.0
outer loop
vertex -0.0009297265733273708 -0.003621045928505205 -0.3
vertex -0.000700524615220398 -0.0036722786360739966 -0.3
vertex -0.0009297265733273708 -0.003621045928505205 0.3
endloop
endfacet
facet normal -0.21814324139654426 -0.9759167619387471 0.0
outer loop
vertex -0.0009297265733273708 -0.003621045928505205 0.3
vertex -0.000700524615220398 -0.0036722786360739966 -0.3
vertex -0.000700524615220398 -0.0036722786360739966 0.3
endloop
endfacet
facet normal -0.0 0.0 1.0
outer loop
vertex -0.0009297265733273708 -0.003621045928505205 0.3
vertex -0.000700524615220398 -0.0036722786360739966 0.3
vertex 0.0 0.0 0.3
endloop
endfacet
facet normal 0.0 -0.0 -1.0
outer loop
vertex -0.000700524615220398 -0.0036722786360739966 -0.3
vertex 0.0 0.0 -0.3
vertex -0.0004685580064964011 -0.003709018537570727 -0.3
endloop
endfacet
facet normal -0.1564344650402295 -0.987688340595138 0.0
outer loop
vertex -0.000700524615220398 -0.0036722786360739966 -0.3
vertex -0.0004685580064964011 -0.003709018537570727 -0.3
vertex -0.000700524615220398 -0.0036722786360739966 0.3
endloop
endfacet
facet normal -0.1564344650402295 -0.987688340595138 0.0
outer loop
vertex -0.000700524615220398 -0.0036722786360739966 0.3
vertex -0.0004685580064964011 -0.003709018537570727 -0.3
vertex -0.0004685580064964011 -0.003709018537570727 0.3
endloop
endfacet
facet normal -0.0 0.0 1.0
outer loop
vertex -0.000700524615220398 -0.0036722786360739966 0.3
vertex -0.0004685580064964011 -0.003709018537570727 0.3
vertex 0.0 0.0 0.3
endloop
endfacet
facet normal 0.0 -0.0 -1.0
outer loop
vertex -0.0004685580064964011 -0.003709018537570727 -0.3
vertex 0.0 0.0 -0.3
vertex -0.00023474221338455725 -0.0037311206373890535 -0.3
endloop
endfacet
facet normal -0.09410831331851434 -0.99556196460308 0.0
outer loop
vertex -0.0004685580064964011 -0.003709018537570727 -0.3
vertex -0.00023474221338455725 -0.0037311206373890535 -0.3
vertex -0.0004685580064964011 -0.003709018537570727 0.3
endloop
endfacet
facet normal -0.09410831331851434 -0.99556196460308 0.0
outer loop
vertex -0.0004685580064964011 -0.003709018537570727 0.3
vertex -0.00023474221338455725 -0.0037311206373890535 -0.3
vertex -0.00023474221338455725 -0.0037311206373890535 0.3
endloop
endfacet
facet normal -0.0 0.0 1.0
outer loop
vertex -0.0004685580064964011 -0.003709018537570727 0.3
vertex -0.00023474221338455725 -0.0037311206373890535 0.3
vertex 0.0 0.0 0.3
endloop
endfacet
facet normal 0.0 -0.0 -1.0
outer loop
vertex -0.00023474221338455725 -0.0037311206373890535 -0.3
vertex 0.0 0.0 -0.3
vertex -6.867508878755746e-19 -0.0037384977086384816 -0.3
endloop
endfacet
facet normal -0.031410759078127744 -0.9995065603657316 0.0
outer loop
vertex -0.00023474221338455725 -0.0037311206373890535 -0.3
vertex -6.867508878755746e-19 -0.0037384977086384816 -0.3
vertex -0.00023474221338455725 -0.0037311206373890535 0.3
endloop
endfacet
facet normal -0.031410759078127744 -0.9995065603657316 0.0
outer loop
vertex -0.00023474221338455725 -0.0037311206373890535 0.3
vertex -6.867508878755746e-19 -0.0037384977086384816 -0.3
vertex -6.867508878755746e-19 -0.0037384977086384816 0.3
endloop
endfacet
facet normal -0.0 0.0 1.0
outer loop
vertex -0.00023474221338455725 -0.0037311206373890535 0.3
vertex -6.867508878755746e-19 -0.0037384977086384816 0.3
vertex 0.0 0.0 0.3
endloop
endfacet
facet normal 0.0 0.0 -1.0
outer loop
vertex -6.867508878755746e-19 -0.0037384977086384816 -0.3
vertex 0.0 0.0 -0.3
vertex 0.00023474221338455918 -0.0037311206373890535 -0.3
endloop
endfacet
facet normal 0.0314107590781273 -0.9995065603657315 0.0
outer loop
vertex -6.867508878755746e-19 -0.0037384977086384816 -0.3
vertex 0.00023474221338455918 -0.0037311206373890535 -0.3
vertex -6.867508878755746e-19 -0.0037384977086384816 0.3
endloop
endfacet
facet normal 0.0314107590781273 -0.9995065603657315 0.0
outer loop
vertex -6.867508878755746e-19 -0.0037384977086384816 0.3
vertex 0.00023474221338455918 -0.0037311206373890535 -0.3
vertex 0.00023474221338455918 -0.0037311206373890535 0.3
endloop
endfacet
facet normal 0.0 -0.0 1.0
outer loop
vertex -6.867508878755746e-19 -0.0037384977086384816 0.3
vertex 0.00023474221338455918 -0.0037311206373890535 0.3
vertex 0.0 0.0 0.3
endloop
endfacet
facet normal 0.0 0.0 -1.0
outer loop
vertex 0.00023474221338455918 -0.0037311206373890535 -0.3
vertex 0.0 0.0 -0.3
vertex 0.000468558006496403 -0.003709018537570727 -0.3
endloop
endfacet
facet normal 0.09410831331851434 -0.99556196460308 0.0
outer loop
vertex 0.00023474221338455918 -0.0037311206373890535 -0.3
vertex 0.000468558006496403 -0.003709018537570727 -0.3
vertex 0.00023474221338455918 -0.0037311206373890535 0.3
endloop
endfacet
facet normal 0.09410831331851434 -0.99556196460308 0.0
outer loop
vertex 0.00023474221338455918 -0.0037311206373890535 0.3
vertex 0.000468558006496403 -0.003709018537570727 -0.3
vertex 0.000468558006496403 -0.003709018537570727 0.3
endloop
endfacet
facet normal 0.0 -0.0 1.0
outer loop
vertex 0.00023474221338455918 -0.0037311206373890535 0.3
vertex 0.000468558006496403 -0.003709018537570727 0.3
vertex 0.0 0.0 0.3
endloop
endfacet
facet normal 0.0 0.0 -1.0
outer loop
vertex 0.000468558006496403 -0.003709018537570727 -0.3
vertex 0.0 0.0 -0.3
vertex 0.0007005246152203999 -0.003672278636073996 -0.3
endloop
endfacet
facet normal 0.15643446504023129 -0.9876883405951378 0.0
outer loop
vertex 0.000468558006496403 -0.003709018537570727 -0.3
vertex 0.0007005246152203999 -0.003672278636073996 -0.3
vertex 0.000468558006496403 -0.003709018537570727 0.3
endloop
endfacet
facet normal 0.15643446504023129 -0.9876883405951378 0.0
outer loop
vertex 0.000468558006496403 -0.003709018537570727 0.3
vertex 0.0007005246152203999 -0.003672278636073996 -0.3
vertex 0.0007005246152203999 -0.003672278636073996 0.3
endloop
endfacet
facet normal 0.0 -0.0 1.0
outer loop
vertex 0.000468558006496403 -0.003709018537570727 0.3
vertex 0.0007005246152203999 -0.003672278636073996 0.3
vertex 0.0 0.0 0.3
endloop
endfacet
facet normal 0.0 0.0 -1.0
outer loop
vertex 0.0007005246152203999 -0.003672278636073996 -0.3
vertex 0.0 0.0 -0.3
vertex 0.0009297265733273727 -0.0036210459285052044 -0.3
endloop
endfacet
facet normal 0.21814324139654426 -0.9759167619387471 0.0
outer loop
vertex 0.0007005246152203999 -0.003672278636073996 -0.3
vertex 0.0009297265733273727 -0.0036210459285052044 -0.3
vertex 0.0007005246152203999 -0.003672278636073996 0.3
endloop
endfacet
facet normal 0.21814324139654426 -0.9759167619387471 0.0
outer loop
vertex 0.0007005246152203999 -0.003672278636073996 0.3
vertex 0.0009297265733273727 -0.0036210459285052044 -0.3
vertex 0.0009297265733273727 -0.0036210459285052044 0.3
endloop
endfacet
facet normal 0.0 -0.0 1.0
outer loop
vertex 0.0007005246152203999 -0.003672278636073996 0.3
vertex 0.0009297265733273727 -0.0036210459285052044 0.3
vertex 0.0 0.0 0.3
endloop
endfacet
facet normal 0.0 0.0 -1.0
outer loop
vertex 0.0009297265733273727 -0.0036210459285052044 -0.3
vertex 0.0 0.0 -0.3
vertex 0.0011552593254010907 -0.0035555226069551287 -0.3
endloop
endfacet
facet normal 0.2789911060392285 -0.9602936856769433 0.0
outer loop
vertex 0.0009297265733273727 -0.0036210459285052044 -0.3
vertex 0.0011552593254010907 -0.0035555226069551287 -0.3
vertex 0.0009297265733273727 -0.0036210459285052044 0.3
endloop
endfacet
facet normal 0.2789911060392285 -0.9602936856769433 0.0
outer loop
vertex 0.0009297265733273727 -0.0036210459285052044 0.3
vertex 0.0011552593254010907 -0.0035555226069551287 -0.3
vertex 0.0011552593254010907 -0.0035555226069551287 0.3
endloop
endfacet
facet normal 0.0 -0.0 1.0
outer loop
vertex 0.0009297265733273727 -0.0036210459285052044 0.3
vertex 0.0011552593254010907 -0.0035555226069551287 0.3
vertex 0.0 0.0 0.3
endloop
endfacet
facet normal 0.0 0.0 -0.9999999999999999
outer loop
vertex 0.0011552593254010907 -0.0035555226069551287 -0.3
vertex 0.0 0.0 -0.3
vertex 0.0013762327967052357 -0.003475967262039167 -0.3
endloop
endfacet
facet normal 0.3387379202452923 -0.940880768954225 0.0
outer loop
vertex 0.0011552593254010907 -0.0035555226069551287 -0.3
vertex 0.0013762327967052357 -0.003475967262039167 -0.3
vertex 0.0011552593254010907 -0.0035555226069551287 0.3
endloop
endfacet
facet normal 0.3387379202452923 -0.940880768954225 0.0
outer loop
vertex 0.0011552593254010907 -0.0035555226069551287 0.3
vertex 0.0013762327967052357 -0.003475967262039167 -0.3
vertex 0.0013762327967052357 -0.003475967262039167 0.3
endloop
endfacet
facet normal 0.0 -0.0 1.0
outer loop
vertex 0.0011552593254010907 -0.0035555226069551287 0.3
vertex 0.0013762327967052357 -0.003475967262039167 0.3
vertex 0.0 0.0 0.3
endloop
endfacet
facet normal 0.0 0.0 -1.0
outer loop
vertex 0.0013762327967052357 -0.003475967262039167 -0.3
vertex 0.0 0.0 -0.3
vertex 0.00159177490590174 -0.0033826938623583254 -0.3
endloop
endfacet
facet normal 0.3971478906347797 -0.9177546256839814 0.0
outer loop
vertex 0.0013762327967052357 -0.003475967262039167 -0.3
vertex 0.00159177490590174 -0.0033826938623583254 -0.3
vertex 0.0013762327967052357 -0.003475967262039167 0.3
endloop
endfacet
facet normal 0.3971478906347797 -0.9177546256839814 0.0
outer loop
vertex 0.0013762327967052357 -0.003475967262039167 0.3
vertex 0.00159177490590174 -0.0033826938623583254 -0.3
vertex 0.00159177490590174 -0.0033826938623583254 0.3
endloop
endfacet
facet normal 0.0 -0.0 1.0
outer loop
vertex 0.0013762327967052357 -0.003475967262039167 0.3
vertex 0.00159177490590174 -0.0033826938623583254 0.3
vertex 0.0 0.0 0.3
endloop
endfacet
facet normal 0.0 0.0 -1.0
outer loop
vertex 0.00159177490590174 -0.0033826938623583254 -0.3
vertex 0.0 0.0 -0.3
vertex 0.001801035006757434 -0.003276070515408578 -0.3
endloop
endfacet
facet normal 0.4539904997395478 -0.8910065241883673 0.0
outer loop
vertex 0.00159177490590174 -0.0033826938623583254 -0.3
vertex 0.001801035006757434 -0.003276070515408578 -0.3
vertex 0.00159177490590174 -0.0033826938623583254 0.3
endloop
endfacet
facet normal 0.4539904997395478 -0.8910065241883673 0.0
outer loop
vertex 0.00159177490590174 -0.0033826938623583254 0.3
vertex 0.001801035006757434 -0.003276070515408578 -0.3
vertex 0.001801035006757434 -0.003276070515408578 0.3
endloop
endfacet
facet normal 0.0 -0.0 1.0
outer loop
vertex 0.00159177490590174 -0.0033826938623583254 0.3
vertex 0.001801035006757434 -0.003276070515408578 0.3
vertex 0.0 0.0 0.3
endloop
endfacet
facet normal 0.0 0.0 -1.0
outer loop
vertex 0.001801035006757434 -0.003276070515408578 -0.3
vertex 0.0 0.0 -0.3
vertex 0.0020031872452560807 -0.0031565180148287655 -0.3
endloop
endfacet
facet normal 0.509041415750372 -0.8607420270039432 0.0
outer loop
vertex 0.001801035006757434 -0.003276070515408578 -0.3
vertex 0.0020031872452560807 -0.0031565180148287655 -0.3
vertex 0.001801035006757434 -0.003276070515408578 0.3
endloop
endfacet
facet normal 0.509041415750372 -0.8607420270039432 0.0
outer loop
vertex 0.001801035006757434 -0.003276070515408578 0.3
vertex 0.0020031872452560807 -0.0031565180148287655 -0.3
vertex 0.0020031872452560807 -0.0031565180148287655 0.3
endloop
endfacet
facet normal 0.0 -0.0 1.0
outer loop
vertex 0.001801035006757434 -0.003276070515408578 0.3
vertex 0.0020031872452560807 -0.0031565180148287655 0.3
vertex 0.0 0.0 0.3
endloop
endfacet
facet normal 0.0 0.0 -0.9999999999999999
outer loop
vertex 0.0020031872452560807 -0.0031565180148287655 -0.3
vertex 0.0 0.0 -0.3
vertex 0.0021974338188669048 -0.0030245081797203306 -0.3
endloop
endfacet
facet normal 0.5620833778521305 -0.8270805742745618 0.0
outer loop
vertex 0.0020031872452560807 -0.0031565180148287655 -0.3
vertex 0.0021974338188669048 -0.0030245081797203306 -0.3
vertex 0.0020031872452560807 -0.0031565180148287655 0.3
endloop
endfacet
facet normal 0.5620833778521305 -0.8270805742745618 0.0
outer loop
vertex 0.0020031872452560807 -0.0031565180148287655 0.3
vertex 0.0021974338188669048 -0.0030245081797203306 -0.3
vertex 0.0021974338188669048 -0.0030245081797203306 0.3
endloop
endfacet
facet normal 0.0 -0.0 1.0
outer loop
vertex 0.0020031872452560807 -0.0031565180148287655 0.3
vertex 0.0021974338188669048 -0.0030245081797203306 0.3
vertex 0.0 0.0 0.3
endloop
endfacet
facet normal 0.0 0.0 -1.0
outer loop
vertex 0.0021974338188669048 -0.0030245081797203306 -0.3
vertex 0.0 0.0 -0.3
vertex 0.0023830081251066766 -0.0028805619925928935 -0.3
endloop
endfacet
facet normal 0.6129070536529758 -0.790155012375691 0.0
outer loop
vertex 0.0021974338188669048 -0.0030245081797203306 -0.3
vertex 0.0023830081251066766 -0.0028805619925928935 -0.3
vertex 0.0021974338188669048 -0.0030245081797203306 0.3
endloop
endfacet
facet normal 0.6129070536529758 -0.790155012375691 0.0
outer loop
vertex 0.0021974338188669048 -0.0030245081797203306 0.3
vertex 0.0023830081251066766 -0.0028805619925928935 -0.3
vertex 0.0023830081251066766 -0.0028805619925928935 0.3
endloop
endfacet
facet normal 0.0 -0.0 1.0
outer loop
vertex 0.0021974338188669048 -0.0030245081797203306 0.3
vertex 0.0023830081251066766 -0.0028805619925928935 0.3
vertex 0.0 0.0 0.3
endloop
endfacet
facet normal 0.0 0.0 -1.0
outer loop
vertex 0.0023830081251066766 -0.0028805619925928935 -0.3
vertex 0.0 0.0 -0.3
vertex 0.002559177786969506 -0.002725247543284286 -0.3
endloop
endfacet
facet normal 0.6613118653236532 -0.7501110696304584 0.0
outer loop
vertex 0.0023830081251066766 -0.0028805619925928935 -0.3
vertex 0.002559177786969506 -0.002725247543284286 -0.3
vertex 0.0023830081251066766 -0.0028805619925928935 0.3
endloop
endfacet
facet normal 0.6613118653236532 -0.7501110696304584 0.0
outer loop
vertex 0.0023830081251066766 -0.0028805619925928935 0.3
vertex 0.002559177786969506 -0.002725247543284286 -0.3
vertex 0.002559177786969506 -0.002725247543284286 0.3
endloop
endfacet
facet normal 0.0 -0.0 1.0
outer loop
vertex 0.0023830081251066766 -0.0028805619925928935 0.3
vertex 0.002559177786969506 -0.002725247543284286 0.3
vertex 0.0 0.0 0.3
endloop
endfacet
facet normal 0.0 0.0 -1.0
outer loop
vertex 0.002559177786969506 -0.002725247543284286 -0.3
vertex 0.0 0.0 -0.3
vertex 0.0027252475432842874 -0.002559177786969505 -0.3
endloop
endfacet
facet normal 0.7071067811865476 -0.7071067811865476 0.0
outer loop
vertex 0.002559177786969506 -0.002725247543284286 -0.3
vertex 0.0027252475432842874 -0.002559177786969505 -0.3
vertex 0.002559177786969506 -0.002725247543284286 0.3
endloop
endfacet
facet normal 0.7071067811865476 -0.7071067811865476 0.0
outer loop
vertex 0.002559177786969506 -0.002725247543284286 0.3
vertex 0.0027252475432842874 -0.002559177786969505 -0.3
vertex 0.0027252475432842874 -0.002559177786969505 0.3
endloop
endfacet
facet normal 0.0 -0.0 1.0
outer loop
vertex 0.002559177786969506 -0.002725247543284286 0.3
vertex 0.0027252475432842874 -0.002559177786969505 0.3
vertex 0.0 0.0 0.3
endloop
endfacet
facet normal 0.0 0.0 -0.9999999999999999
outer loop
vertex 0.0027252475432842874 -0.002559177786969505 -0.3
vertex 0.0 0.0 -0.3
vertex 0.0028805619925928944 -0.0023830081251066753 -0.3
endloop
endfacet
facet normal 0.7501110696304594 -0.6613118653236522 0.0
outer loop
vertex 0.0027252475432842874 -0.002559177786969505 -0.3
vertex 0.0028805619925928944 -0.0023830081251066753 -0.3
vertex 0.0027252475432842874 -0.002559177786969505 0.3
endloop
endfacet
facet normal 0.7501110696304594 -0.6613118653236522 0.0
outer loop
vertex 0.0027252475432842874 -0.002559177786969505 0.3
vertex 0.0028805619925928944 -0.0023830081251066753 -0.3
vertex 0.0028805619925928944 -0.0023830081251066753 0.3
endloop
endfacet
facet normal 0.0 -0.0 1.0
outer loop
vertex 0.0027252475432842874 -0.002559177786969505 0.3
vertex 0.0028805619925928944 -0.0023830081251066753 0.3
vertex 0.0 0.0 0.3
endloop
endfacet
facet normal 0.0 0.0 -0.9999999999999999
outer loop
vertex 0.0028805619925928944 -0.0023830081251066753 -0.3
vertex 0.0 0.0 -0.3
vertex 0.0030245081797203336 -0.0021974338188669004 -0.3
endloop
endfacet
facet normal 0.7901550123756914 -0.6129070536529753 0.0
outer loop
vertex 0.0028805619925928944 -0.0023830081251066753 -0.3
vertex 0.0030245081797203336 -0.0021974338188669004 -0.3
vertex 0.0028805619925928944 -0.0023830081251066753 0.3
endloop
endfacet
facet normal 0.7901550123756914 -0.6129070536529753 0.0
outer loop
vertex 0.0028805619925928944 -0.0023830081251066753 0.3
vertex 0.0030245081797203336 -0.0021974338188669004 -0.3
vertex 0.0030245081797203336 -0.0021974338188669004 0.3
endloop
endfacet
facet normal 0.0 -0.0 1.0
outer loop
vertex 0.0028805619925928944 -0.0023830081251066753 0.3
vertex 0.0030245081797203336 -0.0021974338188669004 0.3
vertex 0.0 0.0 0.3
endloop
endfacet
facet normal 0.0 0.0 -1.0
outer loop
vertex 0.0030245081797203336 -0.0021974338188669004 -0.3
vertex 0.0 0.0 -0.3
vertex 0.0031565180148287668 -0.0020031872452560794 -0.3
endloop
endfacet
facet normal 0.8270805742745614 -0.5620833778521315 0.0
outer loop
vertex 0.0030245081797203336 -0.0021974338188669004 -0.3
vertex 0.0031565180148287668 -0.0020031872452560794 -0.3
vertex 0.0030245081797203336 -0.0021974338188669004 0.3
endloop
endfacet
facet normal 0.8270805742745614 -0.5620833778521315 0.0
outer loop
vertex 0.0030245081797203336 -0.0021974338188669004 0.3
vertex 0.0031565180148287668 -0.0020031872452560794 -0.3
vertex 0.0031565180148287668 -0.0020031872452560794 0.3
endloop
endfacet
facet normal 0.0 -0.0 1.0
outer loop
vertex 0.0030245081797203336 -0.0021974338188669004 0.3
vertex 0.0031565180148287668 -0.0020031872452560794 0.3
vertex 0.0 0.0 0.3
endloop
endfacet
facet normal 0.0 0.0 -1.0
outer loop
vertex 0.0031565180148287668 -0.0020031872452560794 -0.3
vertex 0.0 0.0 -0.3
vertex 0.003276070515408579 -0.0018010350067574326 -0.3
endloop
endfacet
facet normal 0.8607420270039441 -0.5090414157503707 0.0
outer loop
vertex 0.0031565180148287668 -0.0020031872452560794 -0.3
vertex 0.003276070515408579 -0.0018010350067574326 -0.3
vertex 0.0031565180148287668 -0.0020031872452560794 0.3
endloop
endfacet
facet normal 0.8607420270039441 -0.5090414157503707 0.0
outer loop
vertex 0.0031565180148287668 -0.0020031872452560794 0.3
vertex 0.003276070515408579 -0.0018010350067574326 -0.3
vertex 0.003276070515408579 -0.0018010350067574326 0.3
endloop
endfacet
facet normal 0.0 -0.0 1.0
outer loop
vertex 0.0031565180148287668 -0.0020031872452560794 0.3
vertex 0.003276070515408579 -0.0018010350067574326 0.3
vertex 0.0 0.0 0.3
endloop
endfacet
facet normal 0.0 0.0 -0.9999999999999999
outer loop
vertex 0.003276070515408579 -0.0018010350067574326 -0.3
vertex 0.0 0.0 -0.3
vertex 0.003382693862358326 -0.0015917749059017384 -0.3
endloop
endfacet
facet normal 0.8910065241883683 -0.45399049973954597 0.0
outer loop
vertex 0.003276070515408579 -0.0018010350067574326 -0.3
vertex 0.003382693862358326 -0.0015917749059017384 -0.3
vertex 0.003276070515408579 -0.0018010350067574326 0.3
endloop
endfacet
facet normal 0.8910065241883683 -0.45399049973954597 0.0
outer loop
vertex 0.003276070515408579 -0.0018010350067574326 0.3
vertex 0.003382693862358326 -0.0015917749059017384 -0.3
vertex 0.003382693862358326 -0.0015917749059017384 0.3
endloop
endfacet
facet normal 0.0 -0.0 1.0
outer loop
vertex 0.003276070515408579 -0.0018010350067574326 0.3
vertex 0.003382693862358326 -0.0015917749059017384 0.3
vertex 0.0 0.0 0.3
endloop
endfacet
facet normal 0.0 0.0 -1.0
outer loop
vertex 0.003382693862358326 -0.0015917749059017384 -0.3
vertex 0.0 0.0 -0.3
vertex 0.0034759672620391677 -0.0013762327967052341 -0.3
endloop
endfacet
facet normal 0.9177546256839809 -0.3971478906347813 0.0
outer loop
vertex 0.003382693862358326 -0.0015917749059017384 -0.3
vertex 0.0034759672620391677 -0.0013762327967052341 -0.3
vertex 0.003382693862358326 -0.0015917749059017384 0.3
endloop
endfacet
facet normal 0.9177546256839809 -0.3971478906347813 0.0
outer loop
vertex 0.003382693862358326 -0.0015917749059017384 0.3
vertex 0.0034759672620391677 -0.0013762327967052341 -0.3
vertex 0.0034759672620391677 -0.0013762327967052341 0.3
endloop
endfacet
facet normal 0.0 -0.0 1.0
outer loop
vertex 0.003382693862358326 -0.0015917749059017384 0.3
vertex 0.0034759672620391677 -0.0013762327967052341 0.3
vertex 0.0 0.0 0.3
endloop
endfacet
facet normal 0.0 0.0 -1.0
outer loop
vertex 0.0034759672620391677 -0.0013762327967052341 -0.3
vertex 0.0 0.0 -0.3
vertex 0.003555522606955129 -0.0011552593254010892 -0.3
endloop
endfacet
facet normal 0.9408807689542258 -0.3387379202452907 0.0
outer loop
vertex 0.0034759672620391677 -0.0013762327967052341 -0.3
vertex 0.003555522606955129 -0.0011552593254010892 -0.3
vertex 0.0034759672620391677 -0.0013762327967052341 0.3
endloop
endfacet
facet normal 0.9408807689542258 -0.3387379202452907 0.0
outer loop
vertex 0.0034759672620391677 -0.0013762327967052341 0.3
vertex 0.003555522606955129 -0.0011552593254010892 -0.3
vertex 0.003555522606955129 -0.0011552593254010892 0.3
endloop
endfacet
facet normal 0.0 -0.0 1.0
outer loop
vertex 0.0034759672620391677 -0.0013762327967052341 0.3
vertex 0.003555522606955129 -0.0011552593254010892 0.3
vertex 0.0 0.0 0.3
endloop
endfacet
facet normal 0.0 0.0 -1.0
outer loop
vertex 0.003555522606955129 -0.0011552593254010892 -0.3
vertex 0.0 0.0 -0.3
vertex 0.003621045928505205 -0.000929726573327371 -0.3
endloop
endfacet
facet normal 0.9602936856769434 -0.2789911060392282 0.0
outer loop
vertex 0.003555522606955129 -0.0011552593254010892 -0.3
vertex 0.003621045928505205 -0.000929726573327371 -0.3
vertex 0.003555522606955129 -0.0011552593254010892 0.3
endloop
endfacet
facet normal 0.9602936856769434 -0.2789911060392282 0.0
outer loop
vertex 0.003555522606955129 -0.0011552593254010892 0.3
vertex 0.003621045928505205 -0.000929726573327371 -0.3
vertex 0.003621045928505205 -0.000929726573327371 0.3
endloop
endfacet
facet normal 0.0 -0.0 1.0
outer loop
vertex 0.003555522606955129 -0.0011552593254010892 0.3
vertex 0.003621045928505205 -0.000929726573327371 0.3
vertex 0.0 0.0 0.3
endloop
endfacet
facet normal 0.0 0.0 -1.0
outer loop
vertex 0.003621045928505205 -0.000929726573327371 -0.3
vertex 0.0 0.0 -0.3
vertex 0.0036722786360739966 -0.0007005246152203982 -0.3
endloop
endfacet
facet normal 0.9759167619387471 -0.21814324139654426 0.0
outer loop
vertex 0.003621045928505205 -0.000929726573327371 -0.3
vertex 0.0036722786360739966 -0.0007005246152203982 -0.3
vertex 0.003621045928505205 -0.000929726573327371 0.3
endloop
endfacet
facet normal 0.9759167619387471 -0.21814324139654426 0.0
outer loop
vertex 0.003621045928505205 -0.000929726573327371 0.3
vertex 0.0036722786360739966 -0.0007005246152203982 -0.3
vertex 0.0036722786360739966 -0.0007005246152203982 0.3
endloop
endfacet
facet normal 0.0 -0.0 1.0
outer loop
vertex 0.003621045928505205 -0.000929726573327371 0.3
vertex 0.0036722786360739966 -0.0007005246152203982 0.3
vertex 0.0 0.0 0.3
endloop
endfacet
facet normal 0.0 0.0 -1.0
outer loop
vertex 0.0036722786360739966 -0.0007005246152203982 -0.3
vertex 0.0 0.0 -0.3
vertex 0.003709018537570727 -0.00046855800649640134 -0.3
endloop
endfacet
facet normal 0.987688340595138 -0.1564344650402295 0.0
outer loop
vertex 0.0036722786360739966 -0.0007005246152203982 -0.3
vertex 0.003709018537570727 -0.00046855800649640134 -0.3
vertex 0.0036722786360739966 -0.0007005246152203982 0.3
endloop
endfacet
facet normal 0.987688340595138 -0.1564344650402295 0.0
outer loop
vertex 0.0036722786360739966 -0.0007005246152203982 0.3
vertex 0.003709018537570727 -0.00046855800649640134 -0.3
vertex 0.003709018537570727 -0.00046855800649640134 0.3
endloop
endfacet
facet normal 0.0 -0.0 1.0
outer loop
vertex 0.0036722786360739966 -0.0007005246152203982 0.3
vertex 0.003709018537570727 -0.00046855800649640134 0.3
vertex 0.0 0.0 0.3
endloop
endfacet
facet normal 0.0 0.0 -1.0
outer loop
vertex 0.003709018537570727 -0.00046855800649640134 -0.3
vertex 0.0 0.0 -0.3
vertex 0.0037311206373890535 -0.00023474221338455747 -0.3
endloop
endfacet
facet normal 0.99556196460308 -0.09410831331851434 0.0
outer loop
vertex 0.003709018537570727 -0.00046855800649640134 -0.3
vertex 0.0037311206373890535 -0.00023474221338455747 -0.3
vertex 0.003709018537570727 -0.00046855800649640134 0.3
endloop
endfacet
facet normal 0.99556196460308 -0.09410831331851434 0.0
outer loop
vertex 0.003709018537570727 -0.00046855800649640134 0.3
vertex 0.0037311206373890535 -0.00023474221338455747 -0.3
vertex 0.0037311206373890535 -0.00023474221338455747 0.3
endloop
endfacet
facet normal 0.0 -0.0 1.0
outer loop
vertex 0.003709018537570727 -0.00046855800649640134 0.3
vertex 0.0037311206373890535 -0.00023474221338455747 0.3
vertex 0.0 0.0 0.3
endloop
endfacet
facet normal 0.0 0.0 -1.0
outer loop
vertex 0.0037311206373890535 -0.00023474221338455747 -0.3
vertex 0.0 0.0 -0.3
vertex 0.0037384977086384816 0.0 -0.3
endloop
endfacet
facet normal 0.9995065603657316 -0.031410759078127626 0.0
outer loop
vertex 0.0037311206373890535 -0.00023474221338455747 -0.3
vertex 0.0037384977086384816 0.0 -0.3
vertex 0.0037311206373890535 -0.00023474221338455747 0.3
endloop
endfacet
facet normal 0.9995065603657316 -0.031410759078127626 0.0
outer loop
vertex 0.0037311206373890535 -0.00023474221338455747 0.3
vertex 0.0037384977086384816 0.0 -0.3
vertex 0.0037384977086384816 0.0 0.3
endloop
endfacet
facet normal 0.0 -0.0 1.0
outer loop
vertex 0.0037311206373890535 -0.00023474221338455747 0.3
vertex 0.0037384977086384816 0.0 0.3
vertex 0.0 0.0 0.3
endloop
endfacet

endsolid
